<?xml version="1.0" encoding="utf-8"?>
<!-- Generator: Adobe Illustrator 23.0.3, SVG Export Plug-In . SVG Version: 6.00 Build 0)  -->
<svg version="1.1" id="Layer_1" xmlns="http://www.w3.org/2000/svg" xmlns:xlink="http://www.w3.org/1999/xlink" x="0px" y="0px"
	 viewBox="0 0 70 70" style="enable-background:new 0 0 70 70;" xml:space="preserve">
<style type="text/css">
	.st0{fill:#FCC419;}
	.st1{fill:#1A1A1A;}
</style>
<rect x="-1" y="-1" class="st0" width="72" height="72"/>
<path class="st1" d="M8.06,72.58c-6.33,0-11.61-1.06-15.84-3.19c-4.23-2.13-7.36-4.89-9.36-8.29c-2.01-3.4-3.01-7.04-3.01-10.92
	h12.71c0,0.31,0.02,0.61,0.05,0.92c0.03,0.31,0.08,0.63,0.15,0.97c0.31,1.87,1.11,3.55,2.42,5.03c1.31,1.48,3.05,2.65,5.23,3.5
	c2.18,0.85,4.71,1.28,7.6,1.28c3.47,0,6.34-0.38,8.62-1.15c2.28-0.77,3.99-1.91,5.13-3.44c1.14-1.53,1.71-3.45,1.71-5.77
	c0-2.04-0.64-3.74-1.91-5.1c-1.28-1.36-3.06-2.47-5.36-3.32c-2.3-0.85-5.2-1.6-8.7-2.25c-4.9-1.02-9.18-2.25-12.83-3.67
	c-3.66-1.43-6.74-3.55-9.26-6.38c-2.52-2.82-3.78-6.46-3.78-10.92c0-3.88,0.94-7.3,2.81-10.28c1.87-2.98,4.75-5.32,8.62-7.04
	S1.79-0.03,7.61-0.03c5.65,0,10.43,0.86,14.34,2.58c3.91,1.72,6.85,4.14,8.83,7.27c1.97,3.13,2.96,6.79,2.96,10.97H21.03
	c0-1.87-0.48-3.53-1.45-4.97c-0.97-1.45-2.47-2.59-4.49-3.44c-2.02-0.85-4.57-1.28-7.63-1.28c-3.3,0-5.93,0.41-7.88,1.22
	c-1.96,0.82-3.32,1.88-4.08,3.19c-0.77,1.31-1.15,2.78-1.15,4.41c0,1.91,0.64,3.51,1.91,4.82c1.28,1.31,3.17,2.4,5.69,3.27
	c2.52,0.87,5.78,1.62,9.8,2.27c4.8,0.85,8.99,2.07,12.58,3.65c3.59,1.58,6.49,3.82,8.7,6.71c2.21,2.89,3.32,6.53,3.32,10.92
	c0,4.42-1.16,8.21-3.47,11.38c-2.31,3.16-5.6,5.56-9.85,7.19C18.76,71.77,13.78,72.58,8.06,72.58z M60.79,71
	c-3.03,0-5.75-0.49-8.15-1.46c-2.41-0.98-4.43-2.87-6.05-5.69c-1.63-2.82-2.44-6.79-2.44-11.94V30.96h-10.4V20.8h10.4V6.11
	l11.82-0.1V20.8H71v10.16H55.96V52.4c0,2.25,0.33,4.02,1,5.32c0.67,1.3,1.53,2.21,2.59,2.71c1.06,0.5,2.29,0.76,3.69,0.76H71V71
	H60.79z"/>
</svg>
