<svg xmlns="http://www.w3.org/2000/svg" viewBox="0 0 620 420"><defs><style>.a,.b,.c,.d,.e{fill:none;stroke-linejoin:bevel}.a,.b{stroke:#228be6}.a,.c{stroke-width:0.5px}.b,.d{stroke-width:0.25px}.c,.d,.e{stroke:#fff}</style></defs><line class="a" x1="130" y1="270" x2="40" y2="300"/><line class="a" x1="490" y1="270" x2="580" y2="300"/><line class="b" x1="272.5" y1="247.5" x2="250" y2="270"/><line class="b" x1="235" y1="247.5" x2="190" y2="270"/><line class="b" x1="347.5" y1="247.5" x2="370" y2="270"/><line class="b" x1="385" y1="247.5" x2="430" y2="270"/><line class="b" x1="130" y1="120" x2="197.5" y2="153.75"/><line class="b" x1="422.5" y1="153.75" x2="490" y2="120"/><line class="a" x1="115" y1="112.5" x2="505" y2="112.5"/><line class="a" x1="190" y1="120" x2="150" y2="90"/><line class="a" x1="250" y1="120" x2="230" y2="90"/><line class="a" x1="430" y1="120" x2="470" y2="90"/><line class="a" x1="370" y1="120" x2="390" y2="90"/><line class="a" x1="310" y1="120" x2="310" y2="90"/><line class="a" x1="150" y1="90" x2="115" y2="112.5"/><line class="a" x1="230" y1="90" x2="180" y2="112.5"/><line class="a" x1="310" y1="90" x2="245" y2="112.5"/><line class="a" x1="390" y1="90" x2="310" y2="112.5"/><line class="a" x1="470" y1="90" x2="375" y2="112.5"/><line class="a" x1="550" y1="90" x2="440" y2="112.5"/><line class="a" x1="505" y1="112.5" x2="470" y2="90"/><line class="a" x1="440" y1="112.5" x2="390" y2="90"/><line class="a" x1="375" y1="112.5" x2="310" y2="90"/><line class="a" x1="310" y1="112.5" x2="230" y2="90"/><line class="a" x1="245" y1="112.5" x2="150" y2="90"/><line class="a" x1="180" y1="112.5" x2="70" y2="90"/><line class="b" x1="130" y1="270" x2="167.5" y2="257.5"/><line class="b" x1="490" y1="270" x2="422.5" y2="247.5"/><line class="b" x1="197.5" y1="228.75" x2="197.5" y2="153.75"/><line class="b" x1="422.5" y1="247.5" x2="422.5" y2="198.75"/><line class="b" x1="205" y1="247.5" x2="422.5" y2="247.5"/><line class="b" x1="197.5" y1="153.75" x2="422.5" y2="153.75"/><line class="a" x1="302.5" y1="198.75" x2="482.5" y2="198.75"/><line class="a" x1="482.5" y1="176.25" x2="482.5" y2="198.75"/><line class="a" x1="302.5" y1="176.25" x2="482.5" y2="176.25"/><line class="a" x1="302.5" y1="198.75" x2="167.5" y2="266.25"/><line class="a" x1="302.5" y1="176.25" x2="167.5" y2="243.75"/><line class="a" x1="167.5" y1="243.75" x2="167.5" y2="266.25"/><line class="a" x1="310" y1="270" x2="310" y2="300"/><line class="b" x1="235" y1="247.5" x2="235" y2="232.5"/><line class="b" x1="272.5" y1="247.5" x2="272.5" y2="213.75"/><line class="b" x1="347.5" y1="247.5" x2="347.5" y2="198.75"/><line class="b" x1="385" y1="247.5" x2="385" y2="198.75"/><line class="b" x1="190" y1="120" x2="235" y2="153.75"/><line class="b" x1="272.5" y1="153.75" x2="250" y2="120"/><line class="b" x1="347.5" y1="153.75" x2="370" y2="120"/><line class="b" x1="385" y1="153.75" x2="430" y2="120"/><line class="b" x1="235" y1="153.75" x2="235" y2="210"/><line class="b" x1="272.5" y1="153.75" x2="272.5" y2="191.25"/><line class="b" x1="347.5" y1="153.75" x2="347.5" y2="176.25"/><line class="b" x1="385" y1="153.75" x2="385" y2="176.25"/><line class="b" x1="422.5" y1="153.75" x2="422.5" y2="176.25"/><rect class="c" x="130" y="120" width="360" height="150"/><line class="d" x1="190" y1="120" x2="190" y2="270"/><line class="d" x1="250" y1="120" x2="250" y2="270"/><line class="d" x1="310" y1="120" x2="310" y2="270"/><line class="d" x1="370" y1="120" x2="370" y2="270"/><line class="d" x1="430" y1="120" x2="430" y2="270"/><line class="d" x1="130" y1="180" x2="490" y2="180"/><line class="d" x1="130" y1="210" x2="490" y2="210"/><line class="c" x1="70" y1="90" x2="130" y2="120"/><line class="c" x1="550" y1="90" x2="490" y2="120"/><line class="c" x1="70" y1="90" x2="550" y2="90"/><line class="d" x1="160" y1="120" x2="160" y2="270"/><line class="d" x1="220" y1="120" x2="220" y2="270"/><line class="d" x1="280" y1="120" x2="280" y2="270"/><line class="d" x1="340" y1="120" x2="340" y2="270"/><line class="d" x1="400" y1="120" x2="400" y2="270"/><line class="d" x1="460" y1="120" x2="460" y2="270"/><line class="c" x1="160" y1="90" x2="167.5" y2="82.5"/><line class="c" x1="460" y1="90" x2="452.5" y2="82.5"/><line class="c" x1="167.5" y1="82.5" x2="452.5" y2="82.5"/><line class="a" x1="190" y1="270" x2="130" y2="300"/><line class="a" x1="250" y1="270" x2="220" y2="300"/><line class="a" x1="370" y1="270" x2="400" y2="300"/><line class="a" x1="430" y1="270" x2="490" y2="300"/><line class="e" x1="115" y1="112.5" x2="190" y2="270"/><line class="e" x1="310" y1="112.5" x2="250" y2="270"/><line class="e" x1="370" y1="270" x2="310" y2="112.5"/><line class="e" x1="430" y1="270" x2="505" y2="112.5"/><line class="e" x1="180" y1="112.5" x2="250" y2="270"/><line class="e" x1="245" y1="112.5" x2="310" y2="270"/><line class="e" x1="375" y1="112.5" x2="310" y2="270"/><line class="e" x1="440" y1="112.5" x2="370" y2="270"/><line class="e" x1="180" y1="112.5" x2="130" y2="270"/><line class="e" x1="245" y1="112.5" x2="190" y2="270"/><line class="e" x1="375" y1="112.5" x2="430" y2="270"/><line class="e" x1="440" y1="112.5" x2="490" y2="270"/></svg>