<svg xmlns="http://www.w3.org/2000/svg" viewBox="0 0 620 420"><defs><style>.a,.b,.c,.d{fill:none;stroke-linejoin:bevel}.a,.b{stroke:#228be6}.a,.c{stroke-width:0.5px}.b{stroke-width:0.25px}.c,.d{stroke:#fff}</style></defs><line class="a" x1="520" y1="290" x2="80" y2="70"/><line class="a" x1="540" y1="70" x2="100" y2="290"/><line class="a" x1="310" y1="70" x2="310" y2="290"/><line class="b" x1="175" y1="239" x2="175" y2="110"/><line class="b" x1="190" y1="110" x2="190" y2="242"/><line class="b" x1="205" y1="239" x2="205" y2="110"/><line class="b" x1="220" y1="110" x2="220" y2="230"/><line class="b" x1="235" y1="110" x2="235" y2="218"/><line class="b" x1="250" y1="110" x2="250" y2="221"/><line class="b" x1="265" y1="110" x2="265" y2="206"/><line class="b" x1="280" y1="110" x2="280" y2="206"/><line class="b" x1="295" y1="110" x2="295" y2="230"/><line class="b" x1="325" y1="110" x2="325" y2="215"/><line class="b" x1="340" y1="110" x2="340" y2="203"/><line class="b" x1="355" y1="110" x2="355" y2="200"/><line class="b" x1="370" y1="110" x2="370" y2="203"/><line class="b" x1="385" y1="110" x2="385" y2="170"/><line class="b" x1="400" y1="110" x2="400" y2="203"/><line class="b" x1="415" y1="110" x2="415" y2="215"/><line class="b" x1="430" y1="110" x2="430" y2="215"/><line class="b" x1="445" y1="110" x2="445" y2="206"/><line class="b" x1="460" y1="110" x2="460" y2="200"/><line class="b" x1="160" y1="110" x2="160" y2="239"/><line class="b" x1="160" y1="110" x2="460" y2="110"/><line class="c" x1="145" y1="102.5" x2="175" y2="117.5"/><line class="c" x1="445" y1="117.5" x2="475" y2="102.5"/><line class="c" x1="145" y1="102.5" x2="475" y2="102.5"/><line class="c" x1="175" y1="117.5" x2="445" y2="117.5"/><path class="d" d="M164.53,237.17c7.82-.81,10.12,1,10.72,1.48,1.47,1.24,3.08,3.61,2.39,5.26-1.1,2.65-7.54,2.12-10,1.92-6.6-.55-14.56-3.26-14.36-5.46C153.51,238.33,160.72,237.57,164.53,237.17Z"/><path class="d" d="M184.79,244.87c-.24-1.85,6.49-4.11,8.3-4.72a28.2,28.2,0,0,1,10.34-1.6c5,.2,6.52,1.7,6.95,2.19s1.47,1.69,1.22,2.92c-.71,3.56-11.72,4.43-19.6,3.51C189.49,246.88,185,246.35,184.79,244.87Z"/><path class="d" d="M191.11,232.55a110.16,110.16,0,0,1,25.79-11.87c1.8-.56,4.9-1.47,7.65,0,.25.13,2.86,1.57,3.26,4.14.48,3-2.38,5.67-3.7,6.89-9.68,9-40.89,12.76-42,8.05C181.87,238.74,185,236.68,191.11,232.55Z"/><path class="d" d="M215,238.07c-1-2.07,2.28-5.57,8.81-11.64,10.91-10.15,15.08-12.69,18.32-14.37,6.66-3.45,9.35-3.23,11.11-2.29a6.81,6.81,0,0,1,3.32,4.72c.35,2-.14,5.43-7.34,11.81-13.13,11.62-28.48,15.42-33.2,12.78A2.26,2.26,0,0,1,215,238.07Z"/><path class="d" d="M264.71,206.83c2.74-2.35,8.39.3,22.72,8,0,0,25.84,14,31,24.77a6.78,6.78,0,0,1,.64,2.81c-.1,3-2.75,5.14-3.19,5.49-2.23,1.77-6.08,2.53-13.79.19-10.52-3.2-14.85-8.12-35-27.53-1.18-1.13-3.93-3.77-4.22-7.61C262.72,211.15,263.08,208.22,264.71,206.83Z"/><path class="d" d="M235.07,222.37c1-2,4-2.38,6.58-2.46,3.78-.13,9.39.36,17.49,1.2,2,.28,4,.6,6,1,1.07.19,4.94.9,10.41,2.23,2.76.67,4.77,1.21,6.9,1.79,10.55,2.87,13.39,4.13,15.41,6.8a11,11,0,0,1,1.24,2.1,6.38,6.38,0,0,1,.18,1.11,7.83,7.83,0,0,1-.48,3,9,9,0,0,1-.59,1.39l-.12.22c-2.53,4.52-12.78,5.07-12.78,5.07-5,.27-8.94-.46-15.51-2.11,0,0-17.95-4.49-29.55-11.87-1.27-.81-4.44-2.92-5.3-6.45A4.38,4.38,0,0,1,235.07,222.37Z"/><path class="d" d="M274.87,204.47c.54-.52,1.4-.48,2.44-.34a24.39,24.39,0,0,1,5.89,1.58c3.27,1.41,4.91,2.11,5.89,2.64,10.55,5.64,15.82,8.46,15.37,10.72-.08.37-.35,1-1.73,1.67-9.42,4.79-26.89-8.14-28.15-13.4C274.45,206.79,274.08,205.24,274.87,204.47Z"/><path class="d" d="M307.81,218.57c-.16-.9.29-2.18,5.53-6.19a105,105,0,0,1,10-6.64c1.8-1.08,5-3,9.32-5.29,6.34-3.37,8.79-4.2,9.77-3.26a1.78,1.78,0,0,1,.44,1.28c.14,5.39-16.81,26.84-30.28,23.33C311.87,221.62,308.16,220.65,307.81,218.57Z"/><path class="d" d="M419.53,217.86c.14-.76-.28-1.83-4.82-5.25a91.54,91.54,0,0,0-8.72-5.75c-6.22-3.7-7.85-4.58-9.19-5.26-7-3.62-9-3.7-10.12-2.88a3.36,3.36,0,0,0-1.14,2.09c-1.36,7.16,16.12,22.34,28.91,19.87C415.27,220.52,419.19,219.76,419.53,217.86Z"/><path class="d" d="M449.89,203.07c-.69-.43-1.61-.31-3.52.41a32.72,32.72,0,0,0-4.79,2.26c-4.85,2.78-2.82,1.49-5.11,2.88-9.23,5.61-13.83,8.46-13.45,10.47.19,1,1.29,1.58,1.87,1.88,8.69,4.4,26.77-11.19,26-16A2.72,2.72,0,0,0,449.89,203.07Z"/><path class="d" d="M327.2,210.31c9.62-11.76,24.71-12.12,25.94-12.13,6.57-.05,19.29,1.77,22.07,9.31a8.18,8.18,0,0,1,.52,2.71c0,8.06-13.2,15.07-23.26,17.34-12,2.71-28.12.61-30.16-6.32C321.24,217.58,324.4,213.73,327.2,210.31Z"/><path class="d" d="M250.38,204.6c1.69-2.71,7.18-3.74,7.18-3.74,2.44-.46,6.13-1.15,9.86.48,2.09.92,3.48,2.25,3.72,3.41a2.71,2.71,0,0,1,0,.87,3.09,3.09,0,0,1-1.54,1.93c-1.86,1.06-3.91-1.61-8.73-2.51a22.88,22.88,0,0,0-5.38-.28c-2.57.19-5,.85-5.23.25A.46.46,0,0,1,250.38,204.6Z"/><path class="d" d="M475,202.6c.26-.56-1.83-2.15-3.45-3.06a14.68,14.68,0,0,0-4.27-1.58,15.87,15.87,0,0,0-3.56-.38,15.19,15.19,0,0,0-5.42,1c-.39.15-4.68,1.83-4.46,3.37.05.36.33.58.73.91A5.73,5.73,0,0,0,458,204c3,0,3.6-1.33,6.78-1.73a35.48,35.48,0,0,1,8.16.34C473.9,202.78,474.82,202.93,475,202.6Z"/><path class="d" d="M373.41,177.4c0-.42,1.95-.89,3.71-.76,1.06.08,2.55.41,2.58.89,0,.24-.33.44-.51.54a3,3,0,0,1-2.1.2C374.63,177.81,373.41,177.58,373.41,177.4Z"/><path class="d" d="M370.33,193.17a14,14,0,0,1-5.34-4.95c-2.88-4.88-3.9-16.22,3.42-20.9,5-3.22,11.42-1.64,14.34-.08a5.7,5.7,0,0,1,1.58,1.2c3.13,3.37,1.57,10-.22,10.46-.44.11-1.1-.1-1.57.36a1.47,1.47,0,0,0-.39,1c0,.17,0,.45-.06.8-.07,1.42.13,2.25.13,4,0,1-.06,1.27-.25,1.47-.47.49-1.16.1-2,.22-1.63.24-2,2.24-5.11,5.68a3.65,3.65,0,0,1-1.85,1.31A3.81,3.81,0,0,1,370.33,193.17Z"/></svg>