<svg xmlns="http://www.w3.org/2000/svg" viewBox="0 0 620 480"><defs><style>.a,.b{fill:none;stroke-linejoin:bevel;stroke-width:0.25px}.a{stroke:#228be6}.b{stroke:#fff}</style></defs><polygon class="a" points="308 170 310 150 312 170 312 230 310 250 308 230 308 170"/><polygon class="a" points="328.4 158.08 310 150 329.64 154.28 386.7 172.82 405.11 180.9 385.47 176.63 328.4 158.08"/><polygon class="a" points="323.37 135 310 150 320.14 132.65 355.4 84.1 368.78 69.1 358.64 86.45 323.37 135"/><polygon class="a" points="290.36 154.28 310 150 291.6 158.08 234.53 176.63 214.89 180.9 233.3 172.82 290.36 154.28"/><polygon class="a" points="299.86 132.65 310 150 296.63 135 261.36 86.45 251.22 69.1 264.6 84.1 299.86 132.65"/><polygon class="a" points="345.27 67.1 368.78 69.1 345.27 71.1 274.73 71.1 251.22 69.1 274.73 67.1 345.27 67.1"/><polygon class="a" points="399.74 157.92 405.11 180.9 395.94 159.16 374.14 92.08 368.78 69.1 377.95 90.84 399.74 157.92"/><polygon class="a" points="242.05 90.84 251.22 69.1 245.86 92.08 224.06 159.16 214.89 180.9 220.26 157.92 242.05 90.84"/><polygon class="a" points="292.15 234.56 310 250 289.8 237.8 232.74 196.34 214.89 180.9 235.09 193.1 292.15 234.56"/><polygon class="a" points="384.91 193.1 405.11 180.9 387.26 196.34 330.2 237.8 310 250 327.85 234.56 384.91 193.1"/><polygon class="a" points="315.65 238.83 310 250 318.88 241.18 340.68 211.18 346.33 200 337.44 208.83 315.65 238.83"/><polygon class="a" points="357.47 194.28 346.33 200 358.7 198.08 393.97 186.63 405.11 180.9 392.73 182.82 357.47 194.28"/><polygon class="a" points="403.11 300.9 405.11 280.9 407.11 300.9 407.11 360.9 405.11 380.9 403.11 360.9 403.11 300.9"/><polygon class="a" points="423.51 288.99 405.11 280.9 424.75 285.18 481.81 303.72 500.21 311.81 480.57 307.53 423.51 288.99"/><polygon class="a" points="418.48 265.9 405.11 280.9 415.24 263.55 450.51 215.01 463.88 200 453.75 217.36 418.48 265.9"/><polygon class="a" points="385.47 285.18 405.11 280.9 386.7 288.99 329.64 307.53 310 311.81 328.4 303.72 385.47 285.18"/><polygon class="a" points="394.97 263.55 405.11 280.9 391.73 265.9 356.46 217.36 346.33 200 359.7 215.01 394.97 263.55"/><polygon class="a" points="440.37 198 463.88 200 440.37 202 369.84 202 346.33 200 369.84 198 440.37 198"/><polygon class="a" points="494.85 288.83 500.21 311.81 491.04 290.06 469.25 222.98 463.88 200 473.05 221.75 494.85 288.83"/><polygon class="a" points="337.16 221.75 346.33 200 340.96 222.98 319.17 290.06 310 311.81 315.36 288.83 337.16 221.75"/><polygon class="a" points="387.26 365.47 405.11 380.9 384.91 368.7 327.85 327.24 310 311.81 330.2 324.01 387.26 365.47"/><polygon class="a" points="480.01 324.01 500.21 311.81 482.37 327.24 425.3 368.7 405.11 380.9 422.95 365.47 480.01 324.01"/><polygon class="a" points="212.89 362.71 214.89 342.71 216.89 362.71 216.89 422.71 214.89 442.71 212.89 422.71 212.89 362.71"/><polygon class="a" points="233.3 350.79 214.89 342.71 234.53 346.99 291.6 365.53 310 373.61 290.36 369.33 233.3 350.79"/><polygon class="a" points="228.27 327.7 214.89 342.71 225.03 325.35 260.3 276.81 273.67 261.81 263.54 279.16 228.27 327.7"/><polygon class="a" points="195.25 346.99 214.89 342.71 196.49 350.79 139.43 369.33 119.79 373.61 138.19 365.53 195.25 346.99"/><polygon class="a" points="204.76 325.35 214.89 342.71 201.52 327.7 166.25 279.16 156.12 261.81 169.49 276.81 204.76 325.35"/><polygon class="a" points="250.16 259.81 273.67 261.81 250.16 263.81 179.63 263.81 156.12 261.81 179.63 259.81 250.16 259.81"/><polygon class="a" points="304.64 350.63 310 373.61 300.83 351.87 279.04 284.78 273.67 261.81 282.84 283.55 304.64 350.63"/><polygon class="a" points="146.95 283.55 156.12 261.81 150.75 284.78 128.96 351.87 119.79 373.61 125.15 350.63 146.95 283.55"/><polygon class="a" points="197.05 427.27 214.89 442.71 194.7 430.5 137.63 389.05 119.79 373.61 139.99 385.81 197.05 427.27"/><polygon class="a" points="289.8 385.81 310 373.61 292.15 389.05 235.09 430.5 214.89 442.71 232.74 427.27 289.8 385.81"/><polygon class="b" points="308 130 310 150 312 130 312 70 310 50 308 70 308 130"/><polygon class="b" points="328.4 141.92 310 150 329.64 145.72 386.7 127.18 405.11 119.1 385.47 123.38 328.4 141.92"/><polygon class="b" points="323.37 165 310 150 320.14 167.36 355.4 215.9 368.78 230.9 358.64 213.55 323.37 165"/><polygon class="b" points="290.36 145.72 310 150 291.6 141.92 234.53 123.38 214.89 119.1 233.3 127.18 290.36 145.72"/><polygon class="b" points="299.86 167.36 310 150 296.63 165 261.36 213.55 251.22 230.9 264.6 215.9 299.86 167.36"/><polygon class="b" points="403.11 168.54 405.11 180.9 407.11 168.54 407.11 131.46 405.11 119.1 403.11 131.46 403.11 168.54"/><polygon class="b" points="212.89 168.54 214.89 180.9 216.89 168.54 216.89 131.46 214.89 119.1 212.89 131.46 212.89 168.54"/><polygon class="b" points="345.27 232.9 368.78 230.9 345.27 228.9 274.73 228.9 251.22 230.9 274.73 232.9 345.27 232.9"/><polygon class="b" points="399.74 142.08 405.11 119.1 395.94 140.84 374.14 207.92 368.78 230.9 377.95 209.16 399.74 142.08"/><polygon class="b" points="242.05 209.16 251.22 230.9 245.86 207.92 224.06 140.84 214.89 119.1 220.26 142.08 242.05 209.16"/><polygon class="b" points="292.15 65.44 310 50 289.8 62.2 232.74 103.66 214.89 119.1 235.09 106.9 292.15 65.44"/><polygon class="b" points="384.91 106.9 405.11 119.1 387.26 103.66 330.2 62.2 310 50 327.85 65.44 384.91 106.9"/><polygon class="b" points="374.43 219.73 368.78 230.9 377.66 222.08 399.46 192.08 405.11 180.9 396.22 189.73 374.43 219.73"/><polygon class="b" points="220.54 107.92 214.9 119.1 223.78 110.27 245.57 80.27 251.22 69.1 242.34 77.92 220.54 107.92"/><polygon class="b" points="396.22 110.28 405.11 119.1 399.46 107.92 377.66 77.92 368.78 69.1 374.43 80.28 396.22 110.28"/><polygon class="b" points="242.34 222.08 251.22 230.9 245.57 219.73 223.78 189.73 214.89 180.9 220.54 192.08 242.34 222.08"/><polygon class="b" points="321.14 244.28 310 250 322.38 248.08 357.64 236.62 368.78 230.9 356.41 232.82 321.14 244.28"/><polygon class="b" points="262.36 63.38 251.22 69.1 263.6 67.18 298.86 55.72 310 50 297.63 51.92 262.36 63.38"/><polygon class="b" points="263.6 232.82 251.22 230.9 262.36 236.63 297.63 248.08 310 250 298.86 244.28 263.6 232.82"/><polygon class="b" points="322.38 51.92 310 50 321.14 55.72 356.41 67.18 368.78 69.1 357.64 63.38 322.38 51.92"/><polygon class="b" points="403.11 260.9 405.11 280.9 407.11 260.9 407.11 200.9 405.11 180.9 403.11 200.9 403.11 260.9"/><polygon class="b" points="423.51 272.82 405.11 280.9 424.75 276.63 481.81 258.08 500.21 250 480.57 254.28 423.51 272.82"/><polygon class="b" points="418.48 295.91 405.11 280.9 415.24 298.26 450.51 346.8 463.88 361.81 453.75 344.45 418.48 295.91"/><polygon class="b" points="385.47 276.63 405.11 280.9 386.7 272.82 329.64 254.28 310 250 328.4 258.08 385.47 276.63"/><polygon class="b" points="394.97 298.26 405.11 280.9 391.73 295.91 356.46 344.45 346.33 361.81 359.7 346.8 394.97 298.26"/><polygon class="b" points="498.21 299.44 500.21 311.81 502.21 299.44 502.21 262.36 500.21 250 498.21 262.36 498.21 299.44"/><polygon class="b" points="308 299.44 310 311.81 312 299.44 312 262.36 310 250 308 262.36 308 299.44"/><polygon class="b" points="440.37 363.81 463.88 361.81 440.37 359.81 369.84 359.81 346.33 361.81 369.84 363.81 440.37 363.81"/><polygon class="b" points="494.85 272.98 500.21 250 491.04 271.74 469.25 338.83 463.88 361.81 473.05 340.06 494.85 272.98"/><polygon class="b" points="337.16 340.06 346.33 361.81 340.96 338.83 319.17 271.74 310 250 315.36 272.98 337.16 340.06"/><polygon class="b" points="480.01 237.8 500.21 250 482.37 234.56 425.3 193.1 405.11 180.9 422.95 196.34 480.01 237.8"/><polygon class="b" points="469.53 350.63 463.88 361.81 472.77 352.98 494.56 322.98 500.21 311.81 491.33 320.63 469.53 350.63"/><polygon class="b" points="491.33 241.18 500.21 250 494.56 238.83 472.77 208.83 463.88 200 469.53 211.18 491.33 241.18"/><polygon class="b" points="337.44 352.98 346.33 361.81 340.68 350.63 318.88 320.63 310 311.81 315.65 322.98 337.44 352.98"/><polygon class="b" points="416.24 375.18 405.11 380.9 417.48 378.99 452.75 367.53 463.88 361.81 451.51 363.72 416.24 375.18"/><polygon class="b" points="358.7 363.72 346.33 361.81 357.47 367.53 392.73 378.99 405.11 380.9 393.97 375.18 358.7 363.72"/><polygon class="b" points="417.48 182.82 405.11 180.9 416.25 186.63 451.51 198.09 463.89 200 452.75 194.28 417.48 182.82"/><polygon class="b" points="212.89 322.71 214.89 342.71 216.89 322.71 216.89 262.71 214.89 242.71 212.89 262.71 212.89 322.71"/><polygon class="b" points="233.3 334.62 214.89 342.71 234.53 338.43 291.6 319.89 310 311.8 290.36 316.08 233.3 334.62"/><polygon class="b" points="228.27 357.71 214.89 342.71 225.03 360.06 260.3 408.6 273.67 423.61 263.54 406.25 228.27 357.71"/><polygon class="b" points="195.25 338.43 214.89 342.71 196.49 334.62 139.43 316.08 119.79 311.8 138.19 319.89 195.25 338.43"/><polygon class="b" points="204.76 360.06 214.89 342.71 201.52 357.71 166.25 406.25 156.12 423.61 169.49 408.6 204.76 360.06"/><polygon class="b" points="308 361.25 310 373.61 312 361.25 312 324.17 310 311.81 308 324.17 308 361.25"/><polygon class="b" points="117.79 361.25 119.79 373.61 121.79 361.25 121.79 324.17 119.79 311.8 117.79 324.17 117.79 361.25"/><polygon class="b" points="250.16 425.61 273.67 423.61 250.16 421.61 179.63 421.61 156.12 423.61 179.63 425.61 250.16 425.61"/><polygon class="b" points="304.64 334.78 310 311.8 300.83 333.55 279.04 400.63 273.67 423.61 282.84 401.87 304.64 334.78"/><polygon class="b" points="146.95 401.87 156.12 423.61 150.75 400.63 128.96 333.55 119.79 311.8 125.15 334.78 146.95 401.87"/><polygon class="b" points="197.05 258.14 214.89 242.71 194.7 254.91 137.63 296.37 119.79 311.8 139.99 299.6 197.05 258.14"/><polygon class="b" points="289.8 299.6 310 311.8 292.15 296.37 235.09 254.91 214.89 242.71 232.74 258.14 289.8 299.6"/><polygon class="b" points="279.32 412.43 273.67 423.61 282.56 414.78 304.35 384.78 310 373.61 301.12 382.43 279.32 412.43"/><polygon class="b" points="125.44 300.63 119.79 311.8 128.67 302.98 150.47 272.98 156.12 261.8 147.23 270.63 125.44 300.63"/><polygon class="b" points="301.12 302.98 310 311.81 304.35 300.63 282.56 270.63 273.67 261.81 279.32 272.98 301.12 302.98"/><polygon class="b" points="147.23 414.78 156.11 423.61 150.47 412.43 128.67 382.43 119.79 373.61 125.44 384.78 147.23 414.78"/><polygon class="b" points="226.03 436.98 214.9 442.71 227.27 440.79 262.54 429.33 273.67 423.61 261.3 425.52 226.03 436.98"/><polygon class="b" points="167.25 256.08 156.12 261.8 168.49 259.89 203.76 248.43 214.9 242.71 202.52 244.62 167.25 256.08"/><polygon class="b" points="168.49 425.53 156.12 423.61 167.25 429.33 202.52 440.79 214.9 442.71 203.76 436.99 168.49 425.53"/><polygon class="b" points="227.27 244.63 214.9 242.71 226.03 248.43 261.3 259.89 273.67 261.81 262.54 256.08 227.27 244.63"/></svg>