<svg xmlns="http://www.w3.org/2000/svg" viewBox="0 0 1060 420"><defs><style>.a,.b,.c{fill:none;stroke-linejoin:bevel}.a{stroke:#228be6;stroke-width:0.25px}.b,.c{stroke:#fff}.b{stroke-width:0.5px}</style></defs><line class="a" x1="121" y1="219" x2="142" y2="303"/><line class="a" x1="152.5" y1="225" x2="172" y2="303"/><line class="a" x1="358" y1="303" x2="377.5" y2="225"/><line class="a" x1="388" y1="303" x2="409" y2="219"/><rect class="a" x="187" y="252" width="6" height="3"/><rect class="a" x="337" y="252" width="6" height="3"/><rect class="b" x="187" y="303" width="6" height="12"/><rect class="b" x="337" y="303" width="6" height="12"/><polygon class="b" points="190 285 175 225 205 225 190 285"/><polygon class="b" points="340 285 325 225 355 225 340 285"/><polygon class="b" points="409 220.5 409 219 364 219 265 207 166 219 121 219 121 220.5 152.5 225 167.5 225 185.5 297 194.5 297 212.5 225 317.5 225 335.5 297 344.5 297 362.5 225 377.5 225 409 220.5"/><polygon class="b" points="152.5 285 110.5 285 80.5 300 50.5 300 53.5 312 83.5 312 113.5 297 155.5 297 152.5 285"/><line class="a" x1="220" y1="240" x2="220" y2="285"/><line class="a" x1="265" y1="240" x2="265" y2="285"/><line class="a" x1="295" y1="240" x2="295" y2="285"/><line class="a" x1="220" y1="240" x2="310" y2="240"/><line class="a" x1="220" y1="255" x2="310" y2="255"/><line class="a" x1="220" y1="270" x2="310" y2="270"/><line class="c" x1="55" y1="315" x2="85" y2="315"/><line class="c" x1="115" y1="300" x2="85" y2="315"/><line class="c" x1="115" y1="300" x2="425" y2="300"/><line class="a" x1="310" y1="240" x2="310" y2="285"/><line class="a" x1="235" y1="240" x2="235" y2="285"/><line class="a" x1="220" y1="285" x2="310" y2="285"/><line class="a" x1="974" y1="219" x2="957.5" y2="285"/><line class="a" x1="942.5" y1="225" x2="927.5" y2="285"/><line class="a" x1="732.5" y1="225" x2="747.5" y2="285"/><line class="a" x1="815" y1="165" x2="801.5" y2="219"/><line class="a" x1="575" y1="165" x2="605" y2="285"/><line class="a" x1="575" y1="285" x2="543.5" y2="159"/><line class="a" x1="846.5" y1="159" x2="831.5" y2="219"/><line class="a" x1="701" y1="219" x2="717.5" y2="285"/><rect class="a" x="906.5" y="226.5" width="4.5" height="1.5" transform="translate(1817.5 454.5) rotate(-180)"/><rect class="a" x="764" y="226.5" width="4.5" height="1.5" transform="translate(1532.5 454.5) rotate(-180)"/><rect class="a" x="621.5" y="226.5" width="4.5" height="1.5" transform="translate(1247.5 454.5) rotate(-180)"/><rect class="a" x="764" y="166.5" width="4.5" height="1.5" transform="translate(1532.5 334.5) rotate(-180)"/><rect class="a" x="621.5" y="166.5" width="4.5" height="1.5" transform="translate(1247.5 334.5) rotate(-180)"/><line class="a" x1="882.5" y1="240" x2="882.5" y2="270"/><line class="a" x1="867.5" y1="240" x2="867.5" y2="270"/><line class="a" x1="837.5" y1="240" x2="837.5" y2="270"/><line class="a" x1="807.5" y1="240" x2="807.5" y2="270"/><line class="a" x1="792.5" y1="240" x2="792.5" y2="270"/><line class="a" x1="882.5" y1="240" x2="792.5" y2="240"/><line class="a" x1="882.5" y1="255" x2="792.5" y2="255"/><line class="a" x1="882.5" y1="270" x2="792.5" y2="270"/><line class="c" x1="912.5" y1="300" x2="990" y2="300"/><polygon class="b" points="770 285 905 285 890 225 785 225 770 285"/><line class="c" x1="515" y1="315" x2="575" y2="300"/><line class="c" x1="485" y1="315" x2="515" y2="315"/><polygon class="b" points="740 165 753.5 219 779 219 792.5 165 740 165"/><polygon class="b" points="701 220.5 701 219 746 219 732.5 165 657.5 165 627.5 285 762.5 285 747.5 225 732.5 225 701 220.5"/><polygon class="b" points="897.5 225 908 267 909.5 267 920 225 897.5 225"/><polygon class="b" points="755 225 765.5 267 767 267 777.5 225 755 225"/><line class="c" x1="575" y1="300" x2="620" y2="300"/><line class="c" x1="762.5" y1="300" x2="627.5" y2="300"/><line class="c" x1="905" y1="300" x2="770" y2="300"/><polygon class="b" points="597.5 165 623 267 624.5 267 650 165 597.5 165"/><polygon class="b" points="695 147 794 159 846.5 159 846.5 160.5 815 165 800 165 786.5 219 974 219 974 220.5 942.5 225 927.5 225 912.5 285 957.5 285 957.5 286.5 926 291 912.5 291 912.5 315 905 315 905 291 770 291 770 315 762.5 315 762.5 291 627.5 291 627.5 315 620 315 620 291 606.5 291 575 286.5 575 285 620 285 590 165 575 165 543.5 160.5 543.5 159 596 159 695 147"/></svg>