<svg xmlns="http://www.w3.org/2000/svg" viewBox="0 0 620 660"><defs><style>.a,.b{fill:none;stroke-linejoin:bevel;stroke-width:0.25px}.a{stroke:#228be6}.b{stroke:#fff}</style></defs><polygon class="a" points="386 206.54 405 204.54 386 202.54 329 202.54 310 204.54 329 206.54 386 206.54"/><polygon class="a" points="328 246.68 310 259.38 330 250.15 387 217.24 405 204.53 385 213.77 328 246.68"/><polygon class="a" points="308 248.41 310 259.38 312 248.41 312 215.51 310 204.54 308 215.51 308 248.41"/><polygon class="a" points="308 50.97 310 40 312 50.97 312 83.87 310 94.84 308 83.87 308 50.97"/><polygon class="a" points="245.88 181.96 251.23 204.53 242.09 183.22 220.35 117.41 215 94.85 224.15 116.16 245.88 181.96"/><polygon class="a" points="296.48 115.83 310 94.84 300 117.72 264.73 183.53 251.21 204.52 261.21 181.64 296.48 115.83"/><polygon class="a" points="299.61 246.94 310 259.38 296.88 249.87 261.61 216.96 251.22 204.53 264.34 214.03 299.61 246.94"/><polygon class="a" points="374.12 181.97 368.77 204.53 377.92 183.22 399.65 117.42 405 94.85 395.86 116.16 374.12 181.97"/><polygon class="a" points="323.52 115.84 310 94.84 320 117.73 355.27 183.54 368.79 204.53 358.79 181.65 323.52 115.84"/><polygon class="a" points="320.39 246.95 310 259.38 323.12 249.87 358.39 216.97 368.78 204.53 355.66 214.04 320.39 246.95"/><polyline class="a" points="403 150.62 403 182.61 405 204.54 407 182.61 407 150.62"/><polyline class="a" points="391.11 156.11 399.65 181.97 405 204.53 395.86 183.22 387.45 157.8"/><polygon class="a" points="403 160.66 405 149.69 407 160.66 407 193.56 405 204.53 403 193.56 403 160.66"/><polygon class="a" points="340.88 291.65 346.23 314.21 337.08 292.9 315.35 227.1 310 204.53 319.14 225.84 340.88 291.65"/><polygon class="a" points="391.48 225.52 405 204.53 395 227.41 359.73 293.22 346.21 314.21 356.21 291.33 391.48 225.52"/><polygon class="a" points="394.61 356.63 405 369.06 391.88 359.56 356.61 326.65 346.22 314.21 359.34 323.72 394.61 356.63"/><polygon class="a" points="469.12 291.66 463.77 314.22 472.92 292.91 494.65 227.1 500 204.54 490.86 225.85 469.12 291.66"/><polygon class="a" points="418.52 225.53 405 204.53 415 227.41 450.27 293.23 463.79 314.22 453.79 291.33 418.52 225.53"/><polygon class="a" points="415.39 356.64 405 369.07 418.12 359.56 453.39 326.65 463.78 314.22 450.66 323.73 415.39 356.64"/><polygon class="a" points="213 270.34 215 259.37 217 270.34 217 303.24 215 314.21 213 303.24 213 270.34"/><polygon class="a" points="150.88 401.33 156.23 423.89 147.09 402.59 125.35 336.78 120 314.22 129.15 335.52 150.88 401.33"/><polygon class="a" points="201.48 335.2 215 314.21 205 337.09 169.73 402.9 156.21 423.89 166.21 401.01 201.48 335.2"/><polygon class="a" points="204.61 466.31 215 478.75 201.88 469.24 166.61 436.33 156.22 423.9 169.34 433.4 204.61 466.31"/><polygon class="a" points="279.12 401.34 273.77 423.9 282.92 402.59 304.65 336.79 310 314.22 300.86 335.53 279.12 401.34"/><polygon class="a" points="228.52 335.21 215 314.21 225 337.1 260.27 402.91 273.79 423.9 263.79 401.02 228.52 335.21"/><polygon class="a" points="225.39 466.32 215 478.75 228.12 469.24 263.39 436.33 273.78 423.9 260.66 433.41 225.39 466.32"/><line class="a" x1="405" y1="435.47" x2="405" y2="380.62"/><line class="a" x1="405" y1="435.47" x2="405" y2="600"/><line class="a" x1="405" y1="435.47" x2="413" y2="435.47"/><line class="a" x1="405" y1="435.47" x2="397" y2="435.47"/><line class="a" x1="215" y1="545.15" x2="215" y2="490.3"/><line class="a" x1="215" y1="545.15" x2="215" y2="600"/><line class="a" x1="215" y1="545.15" x2="223" y2="545.15"/><line class="a" x1="215" y1="545.15" x2="207" y2="545.15"/><line class="a" x1="310" y1="325.77" x2="310" y2="270.92"/><line class="a" x1="310" y1="314.22" x2="318" y2="314.22"/><line class="a" x1="310" y1="325.77" x2="310" y2="600.01"/><polygon class="b" points="345.27 96.85 368.78 94.85 345.27 92.85 274.73 92.85 251.22 94.85 274.73 96.85 345.27 96.85"/><polygon class="b" points="397.76 96.85 405 94.85 397.76 92.85 376.02 92.85 368.78 94.85 376.02 96.85 397.76 96.85"/><polygon class="b" points="243.98 96.85 251.22 94.85 243.98 92.85 222.24 92.85 215 94.85 222.24 96.85 243.98 96.85"/><polygon class="b" points="291 206.53 310 204.53 291 202.53 234 202.53 215 204.53 234 206.53 291 206.53"/><polygon class="b" points="292 52.71 310 40.01 290 49.24 233 82.15 215 94.85 235 85.62 292 52.71"/><polygon class="b" points="328 52.71 310 40.01 330 49.24 387 82.15 405 94.85 385 85.62 328 52.71"/><polygon class="b" points="292 246.68 310 259.38 290 250.15 233 217.24 215 204.53 235 213.77 292 246.68"/><polygon class="b" points="213 182.6 215 204.53 217 182.6 217 116.79 215 94.85 213 116.79 213 182.6"/><polygon class="b" points="245.88 117.42 251.23 94.86 242.09 116.16 220.35 181.97 215 204.53 224.15 183.23 245.88 117.42"/><polygon class="b" points="296.48 183.55 310 204.54 300 181.66 264.73 115.85 251.21 94.86 261.21 117.74 296.48 183.55"/><polygon class="b" points="299.61 52.44 310 40.01 296.88 49.51 261.61 82.42 251.22 94.86 264.34 85.35 299.61 52.44"/><polygon class="b" points="323.52 183.54 310 204.54 320 181.66 355.27 115.84 368.79 94.85 358.79 117.73 323.52 183.54"/><polygon class="b" points="320.39 52.43 310 40 323.12 49.51 358.39 82.42 368.78 94.85 355.66 85.34 320.39 52.43"/><polyline class="b" points="407 150.62 407 116.79 405 94.85 403 116.79 403 150.62"/><polyline class="b" points="387.46 157.8 374.12 117.41 368.77 94.85 377.92 116.16 391.11 156.11"/><polygon class="b" points="440.27 206.54 463.78 204.54 440.27 202.54 369.73 202.54 346.22 204.54 369.73 206.54 440.27 206.54"/><polygon class="b" points="492.75 206.54 500 204.54 492.75 202.54 471.02 202.54 463.78 204.54 471.02 206.54 492.75 206.54"/><polygon class="b" points="338.98 206.54 346.22 204.54 338.98 202.54 317.24 202.54 310 204.54 317.24 206.54 338.98 206.54"/><polygon class="b" points="386 316.22 405 314.22 386 312.22 329 312.22 310 314.22 329 316.22 386 316.22"/><polygon class="b" points="481 316.23 500 314.23 481 312.23 424 312.23 405 314.23 424 316.23 481 316.23"/><polygon class="b" points="387 162.39 405 149.69 385 158.93 328 191.84 310 204.54 330 195.3 387 162.39"/><polygon class="b" points="423 162.39 405 149.69 425 158.93 482 191.84 500 204.54 480 195.3 423 162.39"/><polygon class="b" points="387 356.37 405 369.07 385 359.83 328 326.92 310 314.22 330 323.46 387 356.37"/><polygon class="b" points="423 356.37 405 369.07 425 359.83 482 326.92 500 314.22 480 323.46 423 356.37"/><polygon class="b" points="308 292.29 310 314.22 312 292.29 312 226.48 310 204.54 308 226.48 308 292.29"/><polygon class="b" points="498 292.29 500 314.23 502 292.29 502 226.48 500 204.54 498 226.48 498 292.29"/><polygon class="b" points="403 358.1 405 369.07 407 358.1 407 325.2 405 314.23 403 325.2 403 358.1"/><polygon class="b" points="340.88 227.11 346.23 204.54 337.08 225.85 315.35 291.66 310 314.22 319.14 292.91 340.88 227.11"/><polygon class="b" points="391.48 293.24 405 314.23 395 291.35 359.73 225.54 346.21 204.54 356.21 227.43 391.48 293.24"/><polygon class="b" points="394.61 162.13 405 149.69 391.88 159.2 356.61 192.11 346.22 204.54 359.34 195.03 394.61 162.13"/><polygon class="b" points="469.12 227.1 463.77 204.54 472.92 225.85 494.65 291.65 500 314.22 490.86 292.91 469.12 227.1"/><polygon class="b" points="418.52 293.23 405 314.22 415 291.34 450.27 225.53 463.79 204.54 453.79 227.42 418.52 293.23"/><polygon class="b" points="415.39 162.12 405 149.69 418.12 159.19 453.39 192.1 463.78 204.54 450.66 195.03 415.39 162.12"/><polygon class="b" points="250.27 316.22 273.78 314.22 250.27 312.22 179.73 312.22 156.22 314.22 179.73 316.22 250.27 316.22"/><polygon class="b" points="302.76 316.22 310 314.22 302.76 312.22 281.02 312.22 273.78 314.22 281.02 316.22 302.76 316.22"/><polygon class="b" points="148.98 316.22 156.22 314.22 148.98 312.22 127.24 312.22 120 314.22 127.24 316.22 148.98 316.22"/><polygon class="b" points="196 425.9 215 423.9 196 421.9 139 421.9 120 423.9 139 425.9 196 425.9"/><polygon class="b" points="291 425.91 310 423.91 291 421.91 234 421.91 215 423.91 234 425.91 291 425.91"/><polygon class="b" points="197 272.08 215 259.38 195 268.61 138 301.52 120 314.22 140 304.99 197 272.08"/><polygon class="b" points="233 272.08 215 259.37 235 268.61 292 301.52 310 314.22 290 304.99 233 272.08"/><polygon class="b" points="197 466.05 215 478.75 195 469.51 138 436.61 120 423.9 140 433.14 197 466.05"/><polygon class="b" points="233 466.05 215 478.75 235 469.51 292 436.61 310 423.9 290 433.14 233 466.05"/><polygon class="b" points="118 401.97 120 423.9 122 401.97 122 336.16 120 314.22 118 336.16 118 401.97"/><polygon class="b" points="308 401.97 310 423.91 312 401.97 312 336.16 310 314.22 308 336.16 308 401.97"/><polygon class="b" points="213 467.78 215 478.75 217 467.78 217 434.88 215 423.91 213 434.88 213 467.78"/><polygon class="b" points="150.88 336.79 156.23 314.23 147.09 335.53 125.35 401.34 120 423.9 129.15 402.6 150.88 336.79"/><polygon class="b" points="201.48 402.92 215 423.91 205 401.03 169.73 335.22 156.21 314.23 166.21 337.11 201.48 402.92"/><polygon class="b" points="204.61 271.81 215 259.38 201.88 268.88 166.61 301.79 156.22 314.22 169.34 304.72 204.61 271.81"/><polygon class="b" points="279.12 336.78 273.77 314.22 282.92 335.53 304.65 401.33 310 423.9 300.86 402.59 279.12 336.78"/><polygon class="b" points="228.52 402.91 215 423.91 225 401.02 260.27 335.21 273.79 314.22 263.79 337.1 228.52 402.91"/><polygon class="b" points="225.39 271.8 215 259.37 228.12 268.88 263.39 301.79 273.78 314.22 260.66 304.71 225.39 271.8"/><polygon class="b" points="223 545.15 219 490.3 215 490.3 211 490.3 207 545.15 211 600 219 600 223 545.15"/><polygon class="b" points="413 435.47 409 380.62 405 380.62 401 380.62 397 435.47 401 600 409 600 413 435.47"/><polygon class="b" points="318 325.77 314 270.92 310 270.92 306 270.92 302 325.77 306 600 314 600 318 325.77"/></svg>