<svg xmlns="http://www.w3.org/2000/svg" viewBox="0 0 620 420"><defs><style>.a,.b{fill:none;stroke-linejoin:bevel}.a{stroke:#228be6;stroke-width:0.25px}.b{stroke:#fff;stroke-width:0.5px}</style></defs><line class="a" x1="150" y1="100" x2="30" y2="160"/><line class="a" x1="30" y1="118" x2="30" y2="220"/><line class="a" x1="150" y1="100" x2="30" y2="220"/><line class="a" x1="30" y1="170" x2="34" y2="174"/><line class="a" x1="30" y1="180" x2="36" y2="186"/><line class="a" x1="30" y1="190" x2="36" y2="196"/><line class="a" x1="30" y1="200" x2="36" y2="206"/><line class="a" x1="30" y1="210" x2="34" y2="214"/><line class="a" x1="54" y1="204" x2="50" y2="200"/><line class="a" x1="70" y1="180" x2="76" y2="186"/><line class="a" x1="110" y1="140" x2="116" y2="146"/><line class="a" x1="134" y1="124" x2="130" y2="120"/><line class="a" x1="96" y1="166" x2="90" y2="160"/><line class="a" x1="30" y1="220" x2="54" y2="204"/><line class="a" x1="76" y1="186" x2="54" y2="204"/><line class="a" x1="116" y1="146" x2="76" y2="186"/><line class="a" x1="150" y1="100" x2="134" y2="124"/><line class="a" x1="116" y1="146" x2="134" y2="124"/><line class="a" x1="70" y1="114" x2="30" y2="118"/><line class="a" x1="110" y1="108" x2="70" y2="114"/><line class="a" x1="150" y1="100" x2="110" y2="108"/><line class="a" x1="36" y1="186" x2="36" y2="206"/><line class="a" x1="34" y1="214" x2="30" y2="220"/><line class="a" x1="36" y1="206" x2="34" y2="214"/><line class="a" x1="34" y1="174" x2="36" y2="186"/><line class="a" x1="34" y1="174" x2="30" y2="160"/><line class="a" x1="190" y1="100" x2="310" y2="160"/><line class="a" x1="430" y1="100" x2="310" y2="160"/><line class="a" x1="310" y1="160" x2="310" y2="220"/><line class="a" x1="190" y1="100" x2="310" y2="220"/><line class="a" x1="430" y1="100" x2="310" y2="220"/><line class="a" x1="310" y1="170" x2="306" y2="174"/><line class="a" x1="310" y1="180" x2="304" y2="186"/><line class="a" x1="310" y1="190" x2="304" y2="196"/><line class="a" x1="310" y1="200" x2="304" y2="206"/><line class="a" x1="310" y1="210" x2="306" y2="214"/><line class="a" x1="310" y1="170" x2="314" y2="174"/><line class="a" x1="310" y1="180" x2="316" y2="186"/><line class="a" x1="310" y1="190" x2="316" y2="196"/><line class="a" x1="310" y1="200" x2="316" y2="206"/><line class="a" x1="310" y1="210" x2="314" y2="214"/><line class="a" x1="210" y1="120" x2="206" y2="124"/><line class="a" x1="230" y1="140" x2="224" y2="146"/><line class="a" x1="270" y1="180" x2="264" y2="186"/><line class="a" x1="290" y1="200" x2="286" y2="204"/><line class="a" x1="310" y1="220" x2="286" y2="204"/><line class="a" x1="286" y1="204" x2="264" y2="186"/><line class="a" x1="244" y1="166" x2="250" y2="160"/><line class="a" x1="264" y1="186" x2="224" y2="146"/><line class="a" x1="206" y1="124" x2="224" y2="146"/><line class="a" x1="190" y1="100" x2="206" y2="124"/><line class="a" x1="334" y1="204" x2="330" y2="200"/><line class="a" x1="350" y1="180" x2="356" y2="186"/><line class="a" x1="390" y1="140" x2="396" y2="146"/><line class="a" x1="414" y1="124" x2="410" y2="120"/><line class="a" x1="376" y1="166" x2="370" y2="160"/><line class="a" x1="310" y1="220" x2="334" y2="204"/><line class="a" x1="356" y1="186" x2="334" y2="204"/><line class="a" x1="396" y1="146" x2="356" y2="186"/><line class="a" x1="430" y1="100" x2="414" y2="124"/><line class="a" x1="396" y1="146" x2="414" y2="124"/><line class="a" x1="230" y1="108" x2="190" y2="100"/><line class="a" x1="270" y1="114" x2="230" y2="108"/><line class="a" x1="310" y1="118" x2="270" y2="114"/><line class="a" x1="350" y1="114" x2="310" y2="118"/><line class="a" x1="390" y1="108" x2="350" y2="114"/><line class="a" x1="430" y1="100" x2="390" y2="108"/><line class="a" x1="304" y1="186" x2="304" y2="206"/><line class="a" x1="316" y1="186" x2="316" y2="206"/><line class="a" x1="304" y1="206" x2="306" y2="214"/><line class="a" x1="316" y1="206" x2="314" y2="214"/><line class="a" x1="306" y1="214" x2="310" y2="220"/><line class="a" x1="314" y1="214" x2="310" y2="220"/><line class="a" x1="304" y1="186" x2="306" y2="174"/><line class="a" x1="314" y1="174" x2="316" y2="186"/><line class="a" x1="306" y1="174" x2="310" y2="160"/><line class="a" x1="314" y1="174" x2="310" y2="160"/><line class="a" x1="470" y1="100" x2="590" y2="160"/><line class="a" x1="470" y1="100" x2="590" y2="220"/><line class="a" x1="590" y1="170" x2="586" y2="174"/><line class="a" x1="590" y1="180" x2="584" y2="186"/><line class="a" x1="590" y1="190" x2="584" y2="196"/><line class="a" x1="590" y1="200" x2="584" y2="206"/><line class="a" x1="590" y1="210" x2="586" y2="214"/><line class="a" x1="490" y1="120" x2="486" y2="124"/><line class="a" x1="510" y1="140" x2="504" y2="146"/><line class="a" x1="550" y1="180" x2="544" y2="186"/><line class="a" x1="570" y1="200" x2="566" y2="204"/><line class="a" x1="590" y1="220" x2="566" y2="204"/><line class="a" x1="566" y1="204" x2="544" y2="186"/><line class="a" x1="524" y1="166" x2="530" y2="160"/><line class="a" x1="544" y1="186" x2="504" y2="146"/><line class="a" x1="486" y1="124" x2="504" y2="146"/><line class="a" x1="470" y1="100" x2="486" y2="124"/><line class="a" x1="510" y1="108" x2="470" y2="100"/><line class="a" x1="550" y1="114" x2="510" y2="108"/><line class="a" x1="590" y1="118" x2="550" y2="114"/><line class="a" x1="584" y1="186" x2="584" y2="206"/><line class="a" x1="584" y1="206" x2="586" y2="214"/><line class="a" x1="590" y1="220" x2="586" y2="214"/><line class="a" x1="584" y1="186" x2="586" y2="174"/><line class="a" x1="586" y1="174" x2="590" y2="160"/><line class="a" x1="590" y1="118" x2="590" y2="220"/><line class="a" x1="442" y1="264" x2="458" y2="264"/><line class="a" x1="450" y1="224" x2="450" y2="344"/><line class="a" x1="302" y1="264" x2="318" y2="264"/><line class="a" x1="310" y1="224" x2="310" y2="344"/><line class="a" x1="162" y1="264" x2="178" y2="264"/><line class="a" x1="170" y1="224" x2="170" y2="344"/><line class="a" x1="30" y1="224" x2="30" y2="344"/><line class="a" x1="590" y1="224" x2="590" y2="344"/><line class="a" x1="582" y1="264" x2="590" y2="264"/><line class="a" x1="38" y1="264" x2="30" y2="264"/><polyline class="a" points="30 224 34 224 38 264 36 344"/><polyline class="b" points="164 344 162 264 166 224 174 224 178 264 176 344"/><polyline class="a" points="304 344 302 264 306 224 314 224 318 264 316 344"/><polyline class="a" points="590 224 586 224 582 264 584 344"/><polyline class="b" points="444 344 442 264 446 224 454 224 458 264 456 344"/><line class="b" x1="50" y1="160" x2="170" y2="100"/><line class="b" x1="290" y1="160" x2="170" y2="100"/><line class="b" x1="90" y1="152" x2="50" y2="160"/><line class="b" x1="130" y1="146" x2="170" y2="142"/><line class="b" x1="90" y1="152" x2="130" y2="146"/><line class="b" x1="210" y1="146" x2="170" y2="142"/><line class="b" x1="250" y1="152" x2="290" y2="160"/><line class="b" x1="210" y1="146" x2="250" y2="152"/><line class="b" x1="170" y1="100" x2="170" y2="220"/><line class="b" x1="50" y1="160" x2="170" y2="220"/><line class="b" x1="130" y1="200" x2="127" y2="206"/><line class="b" x1="87" y1="186" x2="90" y2="180"/><line class="b" x1="150" y1="210" x2="148" y2="214"/><line class="b" x1="70" y1="170" x2="68" y2="174"/><line class="b" x1="170" y1="160" x2="164" y2="166"/><line class="b" x1="176" y1="166" x2="170" y2="160"/><line class="b" x1="170" y1="180" x2="164" y2="186"/><line class="b" x1="176" y1="186" x2="170" y2="180"/><line class="b" x1="170" y1="200" x2="166" y2="204"/><line class="b" x1="174" y1="204" x2="170" y2="200"/><line class="b" x1="170" y1="140" x2="164" y2="146"/><line class="b" x1="176" y1="146" x2="170" y2="140"/><line class="b" x1="170" y1="120" x2="166" y2="124"/><line class="b" x1="174" y1="124" x2="170" y2="120"/><line class="b" x1="110" y1="190" x2="107" y2="196"/><line class="b" x1="164" y1="146" x2="164" y2="186"/><line class="b" x1="176" y1="146" x2="176" y2="186"/><line class="b" x1="166" y1="204" x2="164" y2="186"/><line class="b" x1="174" y1="204" x2="176" y2="186"/><line class="b" x1="166" y1="204" x2="170" y2="220"/><line class="b" x1="174" y1="204" x2="170" y2="220"/><line class="b" x1="164" y1="146" x2="166" y2="124"/><line class="b" x1="174" y1="124" x2="176" y2="146"/><line class="b" x1="166" y1="124" x2="170" y2="100"/><line class="b" x1="174" y1="124" x2="170" y2="100"/><line class="b" x1="50" y1="160" x2="68" y2="174"/><line class="b" x1="148" y1="214" x2="170" y2="220"/><line class="b" x1="68" y1="174" x2="87" y2="186"/><line class="b" x1="127" y1="206" x2="148" y2="214"/><line class="b" x1="87" y1="186" x2="127" y2="206"/><line class="b" x1="290" y1="160" x2="170" y2="220"/><line class="b" x1="210" y1="200" x2="213" y2="206"/><line class="b" x1="253" y1="186" x2="250" y2="180"/><line class="b" x1="190" y1="210" x2="192" y2="214"/><line class="b" x1="270" y1="170" x2="272" y2="174"/><line class="b" x1="230" y1="190" x2="233" y2="196"/><line class="b" x1="290" y1="160" x2="272" y2="174"/><line class="b" x1="192" y1="214" x2="170" y2="220"/><line class="b" x1="272" y1="174" x2="253" y2="186"/><line class="b" x1="213" y1="206" x2="192" y2="214"/><line class="b" x1="253" y1="186" x2="213" y2="206"/><line class="b" x1="330" y1="160" x2="450" y2="100"/><line class="b" x1="370" y1="152" x2="330" y2="160"/><line class="b" x1="410" y1="146" x2="450" y2="142"/><line class="b" x1="370" y1="152" x2="410" y2="146"/><line class="b" x1="450" y1="100" x2="450" y2="220"/><line class="b" x1="330" y1="160" x2="450" y2="220"/><line class="b" x1="410" y1="200" x2="407" y2="206"/><line class="b" x1="367" y1="186" x2="370" y2="180"/><line class="b" x1="430" y1="210" x2="428" y2="214"/><line class="b" x1="350" y1="170" x2="348" y2="174"/><line class="b" x1="450" y1="160" x2="444" y2="166"/><line class="b" x1="450" y1="180" x2="444" y2="186"/><line class="b" x1="450" y1="200" x2="446" y2="204"/><line class="b" x1="450" y1="140" x2="444" y2="146"/><line class="b" x1="450" y1="120" x2="446" y2="124"/><line class="b" x1="390" y1="190" x2="387" y2="196"/><line class="b" x1="444" y1="146" x2="444" y2="186"/><line class="b" x1="446" y1="204" x2="444" y2="186"/><line class="b" x1="446" y1="204" x2="450" y2="220"/><line class="b" x1="444" y1="146" x2="446" y2="124"/><line class="b" x1="446" y1="124" x2="450" y2="100"/><line class="b" x1="330" y1="160" x2="348" y2="174"/><line class="b" x1="428" y1="214" x2="450" y2="220"/><line class="b" x1="348" y1="174" x2="367" y2="186"/><line class="b" x1="407" y1="206" x2="428" y2="214"/><line class="b" x1="367" y1="186" x2="407" y2="206"/><line class="b" x1="570" y1="160" x2="450" y2="100"/><line class="b" x1="490" y1="146" x2="450" y2="142"/><line class="b" x1="530" y1="152" x2="570" y2="160"/><line class="b" x1="490" y1="146" x2="530" y2="152"/><line class="b" x1="456" y1="166" x2="450" y2="160"/><line class="b" x1="456" y1="186" x2="450" y2="180"/><line class="b" x1="454" y1="204" x2="450" y2="200"/><line class="b" x1="456" y1="146" x2="450" y2="140"/><line class="b" x1="454" y1="124" x2="450" y2="120"/><line class="b" x1="456" y1="146" x2="456" y2="186"/><line class="b" x1="454" y1="204" x2="456" y2="186"/><line class="b" x1="454" y1="204" x2="450" y2="220"/><line class="b" x1="454" y1="124" x2="456" y2="146"/><line class="b" x1="454" y1="124" x2="450" y2="100"/><line class="b" x1="570" y1="160" x2="450" y2="220"/><line class="b" x1="490" y1="200" x2="493" y2="206"/><line class="b" x1="533" y1="186" x2="530" y2="180"/><line class="b" x1="470" y1="210" x2="472" y2="214"/><line class="b" x1="550" y1="170" x2="552" y2="174"/><line class="b" x1="510" y1="190" x2="513" y2="196"/><line class="b" x1="570" y1="160" x2="552" y2="174"/><line class="b" x1="472" y1="214" x2="450" y2="220"/><line class="b" x1="552" y1="174" x2="533" y2="186"/><line class="b" x1="493" y1="206" x2="472" y2="214"/><line class="b" x1="533" y1="186" x2="493" y2="206"/></svg>