<svg xmlns="http://www.w3.org/2000/svg" viewBox="0 0 900 420"><defs><style>.a,.b{fill:none;stroke-linejoin:bevel}.a{stroke:#228be6;stroke-width:0.25px}.b{stroke:#fff;stroke-width:0.5px}</style></defs><line class="a" x1="190" y1="160" x2="310" y2="100"/><line class="a" x1="430" y1="160" x2="310" y2="100"/><line class="a" x1="230" y1="152" x2="190" y2="160"/><line class="a" x1="270" y1="146" x2="310" y2="142"/><line class="a" x1="230" y1="152" x2="270" y2="146"/><line class="a" x1="350" y1="146" x2="310" y2="142"/><line class="a" x1="390" y1="152" x2="430" y2="160"/><line class="a" x1="350" y1="146" x2="390" y2="152"/><line class="a" x1="310" y1="100" x2="310" y2="220"/><line class="a" x1="190" y1="160" x2="310" y2="220"/><line class="a" x1="270" y1="200" x2="267" y2="206"/><line class="a" x1="227" y1="186" x2="230" y2="180"/><line class="a" x1="290" y1="210" x2="288" y2="214"/><line class="a" x1="210" y1="170" x2="208" y2="174"/><line class="a" x1="310" y1="160" x2="304" y2="166"/><line class="a" x1="316" y1="166" x2="310" y2="160"/><line class="a" x1="310" y1="180" x2="304" y2="186"/><line class="a" x1="316" y1="186" x2="310" y2="180"/><line class="a" x1="310" y1="200" x2="306" y2="204"/><line class="a" x1="314" y1="204" x2="310" y2="200"/><line class="a" x1="310" y1="140" x2="304" y2="146"/><line class="a" x1="316" y1="146" x2="310" y2="140"/><line class="a" x1="310" y1="120" x2="306" y2="124"/><line class="a" x1="314" y1="124" x2="310" y2="120"/><line class="a" x1="250" y1="190" x2="247" y2="196"/><line class="a" x1="304" y1="146" x2="304" y2="186"/><line class="a" x1="316" y1="146" x2="316" y2="186"/><line class="a" x1="306" y1="204" x2="304" y2="186"/><line class="a" x1="314" y1="204" x2="316" y2="186"/><line class="a" x1="306" y1="204" x2="310" y2="220"/><line class="a" x1="314" y1="204" x2="310" y2="220"/><line class="a" x1="304" y1="146" x2="306" y2="124"/><line class="a" x1="314" y1="124" x2="316" y2="146"/><line class="a" x1="306" y1="124" x2="310" y2="100"/><line class="a" x1="314" y1="124" x2="310" y2="100"/><line class="a" x1="190" y1="160" x2="208" y2="174"/><line class="a" x1="288" y1="214" x2="310" y2="220"/><line class="a" x1="208" y1="174" x2="227" y2="186"/><line class="a" x1="267" y1="206" x2="288" y2="214"/><line class="a" x1="227" y1="186" x2="267" y2="206"/><line class="a" x1="430" y1="160" x2="310" y2="220"/><line class="a" x1="350" y1="200" x2="353" y2="206"/><line class="a" x1="393" y1="186" x2="390" y2="180"/><line class="a" x1="330" y1="210" x2="332" y2="214"/><line class="a" x1="410" y1="170" x2="412" y2="174"/><line class="a" x1="370" y1="190" x2="373" y2="196"/><line class="a" x1="430" y1="160" x2="412" y2="174"/><line class="a" x1="332" y1="214" x2="310" y2="220"/><line class="a" x1="412" y1="174" x2="393" y2="186"/><line class="a" x1="353" y1="206" x2="332" y2="214"/><line class="a" x1="393" y1="186" x2="353" y2="206"/><line class="a" x1="470" y1="160" x2="590" y2="100"/><line class="a" x1="510" y1="152" x2="470" y2="160"/><line class="a" x1="550" y1="146" x2="590" y2="142"/><line class="a" x1="510" y1="152" x2="550" y2="146"/><line class="a" x1="590" y1="100" x2="590" y2="220"/><line class="a" x1="470" y1="160" x2="590" y2="220"/><line class="a" x1="550" y1="200" x2="547" y2="206"/><line class="a" x1="507" y1="186" x2="510" y2="180"/><line class="a" x1="570" y1="210" x2="568" y2="214"/><line class="a" x1="490" y1="170" x2="488" y2="174"/><line class="a" x1="590" y1="160" x2="584" y2="166"/><line class="a" x1="590" y1="180" x2="584" y2="186"/><line class="a" x1="590" y1="200" x2="586" y2="204"/><line class="a" x1="590" y1="140" x2="584" y2="146"/><line class="a" x1="590" y1="120" x2="586" y2="124"/><line class="a" x1="530" y1="190" x2="527" y2="196"/><line class="a" x1="584" y1="146" x2="584" y2="186"/><line class="a" x1="586" y1="204" x2="584" y2="186"/><line class="a" x1="586" y1="204" x2="590" y2="220"/><line class="a" x1="584" y1="146" x2="586" y2="124"/><line class="a" x1="586" y1="124" x2="590" y2="100"/><line class="a" x1="470" y1="160" x2="488" y2="174"/><line class="a" x1="568" y1="214" x2="590" y2="220"/><line class="a" x1="488" y1="174" x2="507" y2="186"/><line class="a" x1="547" y1="206" x2="568" y2="214"/><line class="a" x1="507" y1="186" x2="547" y2="206"/><line class="a" x1="150" y1="160" x2="30" y2="100"/><line class="a" x1="70" y1="146" x2="30" y2="142"/><line class="a" x1="110" y1="152" x2="150" y2="160"/><line class="a" x1="70" y1="146" x2="110" y2="152"/><line class="a" x1="30" y1="100" x2="30" y2="220"/><line class="a" x1="36" y1="166" x2="30" y2="160"/><line class="a" x1="36" y1="186" x2="30" y2="180"/><line class="a" x1="34" y1="204" x2="30" y2="200"/><line class="a" x1="36" y1="146" x2="30" y2="140"/><line class="a" x1="34" y1="124" x2="30" y2="120"/><line class="a" x1="36" y1="146" x2="36" y2="186"/><line class="a" x1="34" y1="204" x2="36" y2="186"/><line class="a" x1="34" y1="204" x2="30" y2="220"/><line class="a" x1="34" y1="124" x2="36" y2="146"/><line class="a" x1="34" y1="124" x2="30" y2="100"/><line class="a" x1="150" y1="160" x2="30" y2="220"/><line class="a" x1="70" y1="200" x2="73" y2="206"/><line class="a" x1="113" y1="186" x2="110" y2="180"/><line class="a" x1="50" y1="210" x2="52" y2="214"/><line class="a" x1="130" y1="170" x2="132" y2="174"/><line class="a" x1="90" y1="190" x2="93" y2="196"/><line class="a" x1="150" y1="160" x2="132" y2="174"/><line class="a" x1="52" y1="214" x2="30" y2="220"/><line class="a" x1="132" y1="174" x2="113" y2="186"/><line class="a" x1="73" y1="206" x2="52" y2="214"/><line class="a" x1="113" y1="186" x2="73" y2="206"/><line class="a" x1="442" y1="264" x2="458" y2="264"/><line class="a" x1="450" y1="224" x2="450" y2="344"/><line class="a" x1="302" y1="264" x2="318" y2="264"/><line class="a" x1="310" y1="224" x2="310" y2="344"/><line class="a" x1="162" y1="264" x2="178" y2="264"/><line class="a" x1="170" y1="224" x2="170" y2="344"/><line class="a" x1="30" y1="224" x2="30" y2="344"/><line class="a" x1="590" y1="224" x2="590" y2="344"/><polyline class="b" points="164 344 162 264 166 224 174 224 178 264 176 344"/><polyline class="a" points="304 344 302 264 306 224 314 224 318 264 316 344"/><polyline class="b" points="444 344 442 264 446 224 454 224 458 264 456 344"/><line class="b" x1="50" y1="100" x2="170" y2="160"/><line class="b" x1="290" y1="100" x2="170" y2="160"/><line class="b" x1="170" y1="160" x2="170" y2="220"/><line class="b" x1="50" y1="100" x2="170" y2="220"/><line class="b" x1="290" y1="100" x2="170" y2="220"/><line class="b" x1="170" y1="170" x2="166" y2="174"/><line class="b" x1="170" y1="180" x2="164" y2="186"/><line class="b" x1="170" y1="190" x2="164" y2="196"/><line class="b" x1="170" y1="200" x2="164" y2="206"/><line class="b" x1="170" y1="210" x2="166" y2="214"/><line class="b" x1="170" y1="170" x2="174" y2="174"/><line class="b" x1="170" y1="180" x2="176" y2="186"/><line class="b" x1="170" y1="190" x2="176" y2="196"/><line class="b" x1="170" y1="200" x2="176" y2="206"/><line class="b" x1="170" y1="210" x2="174" y2="214"/><line class="b" x1="70" y1="120" x2="66" y2="124"/><line class="b" x1="90" y1="140" x2="84" y2="146"/><line class="b" x1="130" y1="180" x2="124" y2="186"/><line class="b" x1="150" y1="200" x2="146" y2="204"/><line class="b" x1="170" y1="220" x2="146" y2="204"/><line class="b" x1="146" y1="204" x2="124" y2="186"/><line class="b" x1="104" y1="166" x2="110" y2="160"/><line class="b" x1="124" y1="186" x2="84" y2="146"/><line class="b" x1="66" y1="124" x2="84" y2="146"/><line class="b" x1="50" y1="100" x2="66" y2="124"/><line class="b" x1="194" y1="204" x2="190" y2="200"/><line class="b" x1="210" y1="180" x2="216" y2="186"/><line class="b" x1="250" y1="140" x2="256" y2="146"/><line class="b" x1="274" y1="124" x2="270" y2="120"/><line class="b" x1="236" y1="166" x2="230" y2="160"/><line class="b" x1="170" y1="220" x2="194" y2="204"/><line class="b" x1="216" y1="186" x2="194" y2="204"/><line class="b" x1="256" y1="146" x2="216" y2="186"/><line class="b" x1="290" y1="100" x2="274" y2="124"/><line class="b" x1="256" y1="146" x2="274" y2="124"/><line class="b" x1="90" y1="108" x2="50" y2="100"/><line class="b" x1="130" y1="114" x2="90" y2="108"/><line class="b" x1="170" y1="118" x2="130" y2="114"/><line class="b" x1="210" y1="114" x2="170" y2="118"/><line class="b" x1="250" y1="108" x2="210" y2="114"/><line class="b" x1="290" y1="100" x2="250" y2="108"/><line class="b" x1="164" y1="186" x2="164" y2="206"/><line class="b" x1="176" y1="186" x2="176" y2="206"/><line class="b" x1="164" y1="206" x2="166" y2="214"/><line class="b" x1="170" y1="220" x2="166" y2="214"/><line class="b" x1="174" y1="214" x2="170" y2="220"/><line class="b" x1="176" y1="206" x2="174" y2="214"/><line class="b" x1="164" y1="186" x2="166" y2="174"/><line class="b" x1="174" y1="174" x2="176" y2="186"/><line class="b" x1="166" y1="174" x2="170" y2="160"/><line class="b" x1="174" y1="174" x2="170" y2="160"/><line class="b" x1="330" y1="100" x2="450" y2="160"/><line class="b" x1="570" y1="100" x2="450" y2="160"/><line class="b" x1="450" y1="160" x2="450" y2="220"/><line class="b" x1="330" y1="100" x2="450" y2="220"/><line class="b" x1="570" y1="100" x2="450" y2="220"/><line class="b" x1="450" y1="170" x2="446" y2="174"/><line class="b" x1="450" y1="180" x2="444" y2="186"/><line class="b" x1="450" y1="190" x2="444" y2="196"/><line class="b" x1="450" y1="200" x2="444" y2="206"/><line class="b" x1="450" y1="210" x2="446" y2="214"/><line class="b" x1="450" y1="170" x2="454" y2="174"/><line class="b" x1="450" y1="180" x2="456" y2="186"/><line class="b" x1="450" y1="190" x2="456" y2="196"/><line class="b" x1="450" y1="200" x2="456" y2="206"/><line class="b" x1="450" y1="210" x2="454" y2="214"/><line class="b" x1="350" y1="120" x2="346" y2="124"/><line class="b" x1="370" y1="140" x2="364" y2="146"/><line class="b" x1="410" y1="180" x2="404" y2="186"/><line class="b" x1="430" y1="200" x2="426" y2="204"/><line class="b" x1="450" y1="220" x2="426" y2="204"/><line class="b" x1="426" y1="204" x2="404" y2="186"/><line class="b" x1="384" y1="166" x2="390" y2="160"/><line class="b" x1="404" y1="186" x2="364" y2="146"/><line class="b" x1="346" y1="124" x2="364" y2="146"/><line class="b" x1="330" y1="100" x2="346" y2="124"/><line class="b" x1="474" y1="204" x2="470" y2="200"/><line class="b" x1="490" y1="180" x2="496" y2="186"/><line class="b" x1="530" y1="140" x2="536" y2="146"/><line class="b" x1="554" y1="124" x2="550" y2="120"/><line class="b" x1="516" y1="166" x2="510" y2="160"/><line class="b" x1="450" y1="220" x2="474" y2="204"/><line class="b" x1="496" y1="186" x2="474" y2="204"/><line class="b" x1="536" y1="146" x2="496" y2="186"/><line class="b" x1="570" y1="100" x2="554" y2="124"/><line class="b" x1="536" y1="146" x2="554" y2="124"/><line class="b" x1="370" y1="108" x2="330" y2="100"/><line class="b" x1="410" y1="114" x2="370" y2="108"/><line class="b" x1="450" y1="118" x2="410" y2="114"/><line class="b" x1="490" y1="114" x2="450" y2="118"/><line class="b" x1="530" y1="108" x2="490" y2="114"/><line class="b" x1="570" y1="100" x2="530" y2="108"/><line class="b" x1="444" y1="186" x2="444" y2="206"/><line class="b" x1="456" y1="186" x2="456" y2="206"/><line class="b" x1="444" y1="206" x2="446" y2="214"/><line class="b" x1="456" y1="206" x2="454" y2="214"/><line class="b" x1="446" y1="214" x2="450" y2="220"/><line class="b" x1="454" y1="214" x2="450" y2="220"/><line class="b" x1="444" y1="186" x2="446" y2="174"/><line class="b" x1="454" y1="174" x2="456" y2="186"/><line class="b" x1="446" y1="174" x2="450" y2="160"/><line class="b" x1="454" y1="174" x2="450" y2="160"/><line class="a" x1="710" y1="160" x2="590" y2="100"/><line class="a" x1="630" y1="146" x2="590" y2="142"/><line class="a" x1="670" y1="152" x2="710" y2="160"/><line class="a" x1="630" y1="146" x2="670" y2="152"/><line class="a" x1="596" y1="166" x2="590" y2="160"/><line class="a" x1="596" y1="186" x2="590" y2="180"/><line class="a" x1="594" y1="204" x2="590" y2="200"/><line class="a" x1="596" y1="146" x2="590" y2="140"/><line class="a" x1="594" y1="124" x2="590" y2="120"/><line class="a" x1="596" y1="146" x2="596" y2="186"/><line class="a" x1="594" y1="204" x2="596" y2="186"/><line class="a" x1="594" y1="204" x2="590" y2="220"/><line class="a" x1="594" y1="124" x2="596" y2="146"/><line class="a" x1="594" y1="124" x2="590" y2="100"/><line class="a" x1="710" y1="160" x2="590" y2="220"/><line class="a" x1="630" y1="200" x2="633" y2="206"/><line class="a" x1="673" y1="186" x2="670" y2="180"/><line class="a" x1="610" y1="210" x2="612" y2="214"/><line class="a" x1="690" y1="170" x2="692" y2="174"/><line class="a" x1="650" y1="190" x2="653" y2="196"/><line class="a" x1="710" y1="160" x2="692" y2="174"/><line class="a" x1="612" y1="214" x2="590" y2="220"/><line class="a" x1="692" y1="174" x2="673" y2="186"/><line class="a" x1="633" y1="206" x2="612" y2="214"/><line class="a" x1="673" y1="186" x2="633" y2="206"/><line class="a" x1="750" y1="160" x2="870" y2="100"/><line class="a" x1="790" y1="152" x2="750" y2="160"/><line class="a" x1="830" y1="146" x2="870" y2="142"/><line class="a" x1="790" y1="152" x2="830" y2="146"/><line class="a" x1="870" y1="100" x2="870" y2="220"/><line class="a" x1="750" y1="160" x2="870" y2="220"/><line class="a" x1="830" y1="200" x2="827" y2="206"/><line class="a" x1="787" y1="186" x2="790" y2="180"/><line class="a" x1="850" y1="210" x2="848" y2="214"/><line class="a" x1="770" y1="170" x2="768" y2="174"/><line class="a" x1="870" y1="160" x2="864" y2="166"/><line class="a" x1="870" y1="180" x2="864" y2="186"/><line class="a" x1="870" y1="200" x2="866" y2="204"/><line class="a" x1="870" y1="140" x2="864" y2="146"/><line class="a" x1="870" y1="120" x2="866" y2="124"/><line class="a" x1="810" y1="190" x2="807" y2="196"/><line class="a" x1="864" y1="146" x2="864" y2="186"/><line class="a" x1="866" y1="204" x2="864" y2="186"/><line class="a" x1="866" y1="204" x2="870" y2="220"/><line class="a" x1="864" y1="146" x2="866" y2="124"/><line class="a" x1="866" y1="124" x2="870" y2="100"/><line class="a" x1="750" y1="160" x2="768" y2="174"/><line class="a" x1="848" y1="214" x2="870" y2="220"/><line class="a" x1="768" y1="174" x2="787" y2="186"/><line class="a" x1="827" y1="206" x2="848" y2="214"/><line class="a" x1="787" y1="186" x2="827" y2="206"/><line class="a" x1="722" y1="264" x2="738" y2="264"/><line class="a" x1="730" y1="224" x2="730" y2="344"/><line class="a" x1="582" y1="264" x2="598" y2="264"/><line class="a" x1="870" y1="224" x2="870" y2="344"/><polyline class="a" points="584 344 582 264 586 224 594 224 598 264 596 344"/><polyline class="b" points="724 344 722 264 726 224 734 224 738 264 736 344"/><line class="b" x1="610" y1="100" x2="730" y2="160"/><line class="b" x1="850" y1="100" x2="730" y2="160"/><line class="b" x1="730" y1="160" x2="730" y2="220"/><line class="b" x1="610" y1="100" x2="730" y2="220"/><line class="b" x1="850" y1="100" x2="730" y2="220"/><line class="b" x1="730" y1="170" x2="726" y2="174"/><line class="b" x1="730" y1="180" x2="724" y2="186"/><line class="b" x1="730" y1="190" x2="724" y2="196"/><line class="b" x1="730" y1="200" x2="724" y2="206"/><line class="b" x1="730" y1="210" x2="726" y2="214"/><line class="b" x1="730" y1="170" x2="734" y2="174"/><line class="b" x1="730" y1="180" x2="736" y2="186"/><line class="b" x1="730" y1="190" x2="736" y2="196"/><line class="b" x1="730" y1="200" x2="736" y2="206"/><line class="b" x1="730" y1="210" x2="734" y2="214"/><line class="b" x1="630" y1="120" x2="626" y2="124"/><line class="b" x1="650" y1="140" x2="644" y2="146"/><line class="b" x1="690" y1="180" x2="684" y2="186"/><line class="b" x1="710" y1="200" x2="706" y2="204"/><line class="b" x1="730" y1="220" x2="706" y2="204"/><line class="b" x1="706" y1="204" x2="684" y2="186"/><line class="b" x1="664" y1="166" x2="670" y2="160"/><line class="b" x1="684" y1="186" x2="644" y2="146"/><line class="b" x1="626" y1="124" x2="644" y2="146"/><line class="b" x1="610" y1="100" x2="626" y2="124"/><line class="b" x1="754" y1="204" x2="750" y2="200"/><line class="b" x1="770" y1="180" x2="776" y2="186"/><line class="b" x1="810" y1="140" x2="816" y2="146"/><line class="b" x1="834" y1="124" x2="830" y2="120"/><line class="b" x1="796" y1="166" x2="790" y2="160"/><line class="b" x1="730" y1="220" x2="754" y2="204"/><line class="b" x1="776" y1="186" x2="754" y2="204"/><line class="b" x1="816" y1="146" x2="776" y2="186"/><line class="b" x1="850" y1="100" x2="834" y2="124"/><line class="b" x1="816" y1="146" x2="834" y2="124"/><line class="b" x1="650" y1="108" x2="610" y2="100"/><line class="b" x1="690" y1="114" x2="650" y2="108"/><line class="b" x1="730" y1="118" x2="690" y2="114"/><line class="b" x1="770" y1="114" x2="730" y2="118"/><line class="b" x1="810" y1="108" x2="770" y2="114"/><line class="b" x1="850" y1="100" x2="810" y2="108"/><line class="b" x1="724" y1="186" x2="724" y2="206"/><line class="b" x1="736" y1="186" x2="736" y2="206"/><line class="b" x1="724" y1="206" x2="726" y2="214"/><line class="b" x1="736" y1="206" x2="734" y2="214"/><line class="b" x1="726" y1="214" x2="730" y2="220"/><line class="b" x1="734" y1="214" x2="730" y2="220"/><line class="b" x1="724" y1="186" x2="726" y2="174"/><line class="b" x1="734" y1="174" x2="736" y2="186"/><line class="b" x1="726" y1="174" x2="730" y2="160"/><line class="b" x1="734" y1="174" x2="730" y2="160"/><line class="a" x1="30" y1="264" x2="38" y2="264"/><line class="a" x1="862" y1="264" x2="870" y2="264"/><polyline class="a" points="30 224 34 224 38 264 36 344"/><polyline class="a" points="864 344 862 264 866 224 870 224"/></svg>