<svg xmlns="http://www.w3.org/2000/svg" viewBox="0 0 300 1040"><defs><style>.a,.b,.c{fill:none;stroke-linejoin:bevel;}.a,.c{stroke:#fff;}.b{stroke:#228be6;}.b,.c{stroke-width:0.25px;}</style></defs><title>Untitled-3</title><line class="a" y1="940" x2="300" y2="940"/><line class="b" x1="30" y1="175" x2="30" y2="805"/><line class="b" x1="270" y1="805" x2="270" y2="175"/><line class="b" x1="45" y1="145" x2="45" y2="940"/><line class="b" x1="255" y1="145" x2="255" y2="940"/><line class="b" x1="75" y1="940" x2="75" y2="145"/><line class="b" x1="105" y1="145" x2="105" y2="940"/><line class="b" x1="135" y1="940" x2="135" y2="145"/><line class="b" x1="165" y1="145" x2="165" y2="940"/><line class="b" x1="195" y1="940" x2="195" y2="145"/><line class="b" x1="225" y1="145" x2="225" y2="940"/><line class="b" x1="30" y1="805" x2="270" y2="805"/><line class="b" x1="45" y1="806.5" x2="255" y2="806.5"/><line class="b" x1="30" y1="745" x2="270" y2="745"/><line class="b" x1="45" y1="746.5" x2="255" y2="746.5"/><line class="b" x1="30" y1="715" x2="270" y2="715"/><line class="b" x1="45" y1="716.5" x2="255" y2="716.5"/><line class="b" x1="30" y1="685" x2="270" y2="685"/><line class="b" x1="45" y1="686.5" x2="255" y2="686.5"/><line class="b" x1="30" y1="655" x2="270" y2="655"/><line class="b" x1="45" y1="656.5" x2="255" y2="656.5"/><line class="b" x1="30" y1="625" x2="270" y2="625"/><line class="b" x1="45" y1="626.5" x2="255" y2="626.5"/><line class="b" x1="30" y1="595" x2="270" y2="595"/><line class="b" x1="45" y1="596.5" x2="255" y2="596.5"/><line class="b" x1="60" y1="160" x2="60" y2="940"/><line class="b" x1="90" y1="940" x2="90" y2="160"/><line class="b" x1="120" y1="160" x2="120" y2="940"/><line class="b" x1="150" y1="940" x2="150" y2="160"/><line class="b" x1="180" y1="160" x2="180" y2="940"/><line class="b" x1="210" y1="940" x2="210" y2="160"/><line class="b" x1="240" y1="160" x2="240" y2="940"/><line class="b" x1="30" y1="535" x2="270" y2="535"/><line class="b" x1="45" y1="536.5" x2="255" y2="536.5"/><line class="b" x1="30" y1="565" x2="270" y2="565"/><line class="b" x1="45" y1="566.5" x2="255" y2="566.5"/><line class="b" x1="30" y1="475" x2="270" y2="475"/><line class="b" x1="45" y1="476.5" x2="255" y2="476.5"/><line class="b" x1="30" y1="445" x2="270" y2="445"/><line class="b" x1="45" y1="446.5" x2="255" y2="446.5"/><line class="b" x1="30" y1="415" x2="270" y2="415"/><line class="b" x1="45" y1="416.5" x2="255" y2="416.5"/><line class="b" x1="30" y1="385" x2="270" y2="385"/><line class="b" x1="45" y1="386.5" x2="255" y2="386.5"/><line class="b" x1="30" y1="355" x2="270" y2="355"/><line class="b" x1="45" y1="356.5" x2="255" y2="356.5"/><line class="b" x1="30" y1="325" x2="270" y2="325"/><line class="b" x1="45" y1="326.5" x2="255" y2="326.5"/><line class="b" x1="30" y1="295" x2="270" y2="295"/><line class="b" x1="45" y1="296.5" x2="255" y2="296.5"/><line class="b" x1="30" y1="265" x2="270" y2="265"/><line class="b" x1="45" y1="266.5" x2="255" y2="266.5"/><line class="b" x1="30" y1="235" x2="270" y2="235"/><line class="b" x1="45" y1="236.5" x2="255" y2="236.5"/><line class="b" x1="30" y1="205" x2="270" y2="205"/><line class="b" x1="45" y1="206.5" x2="255" y2="206.5"/><line class="b" x1="30" y1="175" x2="270" y2="175"/><line class="b" x1="45" y1="176.5" x2="255" y2="176.5"/><line class="c" x1="87" y1="940" x2="88.5" y2="928"/><line class="c" x1="91.5" y1="928" x2="93" y2="940"/><line class="c" x1="148.5" y1="928" x2="147" y2="940"/><line class="c" x1="151.5" y1="928" x2="153" y2="940"/><line class="c" x1="208.5" y1="928" x2="207" y2="940"/><line class="c" x1="211.5" y1="928" x2="213" y2="940"/><line class="c" x1="88.5" y1="928" x2="91.5" y2="928"/><line class="c" x1="148.5" y1="928" x2="151.5" y2="928"/><line class="c" x1="208.5" y1="928" x2="211.5" y2="928"/><line class="c" x1="253.5" y1="928" x2="252" y2="940"/><line class="c" x1="256.5" y1="928" x2="258" y2="940"/><line class="c" x1="253.5" y1="928" x2="256.5" y2="928"/><line class="c" x1="43.5" y1="928" x2="42" y2="940"/><line class="c" x1="46.5" y1="928" x2="48" y2="940"/><line class="c" x1="43.5" y1="928" x2="46.5" y2="928"/><line class="c" x1="61.5" y1="818.5" x2="85.5" y2="914.5"/><line class="c" x1="118.5" y1="818.5" x2="94.5" y2="914.5"/><line class="c" x1="85.5" y1="914.5" x2="90" y2="926.5"/><line class="c" x1="94.5" y1="914.5" x2="90" y2="926.5"/><line class="c" x1="61.5" y1="818.5" x2="60" y2="806.5"/><line class="c" x1="118.5" y1="818.5" x2="120" y2="806.5"/><line class="c" x1="121.5" y1="818.5" x2="145.5" y2="914.5"/><line class="c" x1="178.5" y1="818.5" x2="154.5" y2="914.5"/><line class="c" x1="145.5" y1="914.5" x2="150" y2="926.5"/><line class="c" x1="154.5" y1="914.5" x2="150" y2="926.5"/><line class="c" x1="121.5" y1="818.5" x2="120" y2="806.5"/><line class="c" x1="178.5" y1="818.5" x2="180" y2="806.5"/><line class="c" x1="181.5" y1="818.5" x2="205.5" y2="914.5"/><line class="c" x1="238.5" y1="818.5" x2="214.5" y2="914.5"/><line class="c" x1="205.5" y1="914.5" x2="210" y2="926.5"/><line class="c" x1="214.5" y1="914.5" x2="210" y2="926.5"/><line class="c" x1="181.5" y1="818.5" x2="180" y2="806.5"/><line class="c" x1="238.5" y1="818.5" x2="240" y2="806.5"/><line class="c" x1="55.5" y1="794.5" x2="60" y2="806.5"/><line class="c" x1="64.5" y1="794.5" x2="60" y2="806.5"/><line class="c" x1="46.5" y1="758.5" x2="45" y2="746.5"/><line class="c" x1="73.5" y1="758.5" x2="75" y2="746.5"/><line class="c" x1="46.5" y1="758.5" x2="55.5" y2="794.5"/><line class="c" x1="64.5" y1="794.5" x2="73.5" y2="758.5"/><line class="c" x1="115.5" y1="794.5" x2="120" y2="806.5"/><line class="c" x1="124.5" y1="794.5" x2="120" y2="806.5"/><line class="c" x1="106.5" y1="758.5" x2="105" y2="746.5"/><line class="c" x1="133.5" y1="758.5" x2="135" y2="746.5"/><line class="c" x1="106.5" y1="758.5" x2="115.5" y2="794.5"/><line class="c" x1="124.5" y1="794.5" x2="133.5" y2="758.5"/><line class="c" x1="175.5" y1="794.5" x2="180" y2="806.5"/><line class="c" x1="184.5" y1="794.5" x2="180" y2="806.5"/><line class="c" x1="166.5" y1="758.5" x2="165" y2="746.5"/><line class="c" x1="193.5" y1="758.5" x2="195" y2="746.5"/><line class="c" x1="166.5" y1="758.5" x2="175.5" y2="794.5"/><line class="c" x1="184.5" y1="794.5" x2="193.5" y2="758.5"/><line class="c" x1="235.5" y1="794.5" x2="240" y2="806.5"/><line class="c" x1="244.5" y1="794.5" x2="240" y2="806.5"/><line class="c" x1="226.5" y1="758.5" x2="225" y2="746.5"/><line class="c" x1="253.5" y1="758.5" x2="255" y2="746.5"/><line class="c" x1="226.5" y1="758.5" x2="235.5" y2="794.5"/><line class="c" x1="244.5" y1="794.5" x2="253.5" y2="758.5"/><line class="c" x1="70.5" y1="734.5" x2="75" y2="746.5"/><line class="c" x1="79.5" y1="734.5" x2="75" y2="746.5"/><line class="c" x1="61.5" y1="698.5" x2="60" y2="686.5"/><line class="c" x1="88.5" y1="698.5" x2="90" y2="686.5"/><line class="c" x1="61.5" y1="698.5" x2="70.5" y2="734.5"/><line class="c" x1="79.5" y1="734.5" x2="88.5" y2="698.5"/><line class="c" x1="100.5" y1="734.5" x2="105" y2="746.5"/><line class="c" x1="109.5" y1="734.5" x2="105" y2="746.5"/><line class="c" x1="91.5" y1="698.5" x2="90" y2="686.5"/><line class="c" x1="118.5" y1="698.5" x2="120" y2="686.5"/><line class="c" x1="91.5" y1="698.5" x2="100.5" y2="734.5"/><line class="c" x1="109.5" y1="734.5" x2="118.5" y2="698.5"/><line class="c" x1="130.5" y1="734.5" x2="135" y2="746.5"/><line class="c" x1="139.5" y1="734.5" x2="135" y2="746.5"/><line class="c" x1="121.5" y1="698.5" x2="120" y2="686.5"/><line class="c" x1="148.5" y1="698.5" x2="150" y2="686.5"/><line class="c" x1="121.5" y1="698.5" x2="130.5" y2="734.5"/><line class="c" x1="139.5" y1="734.5" x2="148.5" y2="698.5"/><line class="c" x1="160.5" y1="734.5" x2="165" y2="746.5"/><line class="c" x1="169.5" y1="734.5" x2="165" y2="746.5"/><line class="c" x1="151.5" y1="698.5" x2="150" y2="686.5"/><line class="c" x1="178.5" y1="698.5" x2="180" y2="686.5"/><line class="c" x1="151.5" y1="698.5" x2="160.5" y2="734.5"/><line class="c" x1="169.5" y1="734.5" x2="178.5" y2="698.5"/><line class="c" x1="190.5" y1="734.5" x2="195" y2="746.5"/><line class="c" x1="199.5" y1="734.5" x2="195" y2="746.5"/><line class="c" x1="181.5" y1="698.5" x2="180" y2="686.5"/><line class="c" x1="208.5" y1="698.5" x2="210" y2="686.5"/><line class="c" x1="181.5" y1="698.5" x2="190.5" y2="734.5"/><line class="c" x1="199.5" y1="734.5" x2="208.5" y2="698.5"/><line class="c" x1="220.5" y1="734.5" x2="225" y2="746.5"/><line class="c" x1="229.5" y1="734.5" x2="225" y2="746.5"/><line class="c" x1="211.5" y1="698.5" x2="210" y2="686.5"/><line class="c" x1="238.5" y1="698.5" x2="240" y2="686.5"/><line class="c" x1="211.5" y1="698.5" x2="220.5" y2="734.5"/><line class="c" x1="229.5" y1="734.5" x2="238.5" y2="698.5"/><line class="c" x1="250.5" y1="734.5" x2="255" y2="746.5"/><line class="c" x1="241.5" y1="698.5" x2="240" y2="686.5"/><line class="c" x1="241.5" y1="698.5" x2="250.5" y2="734.5"/><line class="c" x1="49.5" y1="734.5" x2="45" y2="746.5"/><line class="c" x1="58.5" y1="698.5" x2="60" y2="686.5"/><line class="c" x1="49.5" y1="734.5" x2="58.5" y2="698.5"/><line class="c" x1="70.5" y1="614.5" x2="75" y2="626.5"/><line class="c" x1="79.5" y1="614.5" x2="75" y2="626.5"/><line class="c" x1="61.5" y1="578.5" x2="60" y2="566.5"/><line class="c" x1="88.5" y1="578.5" x2="90" y2="566.5"/><line class="c" x1="61.5" y1="578.5" x2="70.5" y2="614.5"/><line class="c" x1="79.5" y1="614.5" x2="88.5" y2="578.5"/><line class="c" x1="100.5" y1="614.5" x2="105" y2="626.5"/><line class="c" x1="109.5" y1="614.5" x2="105" y2="626.5"/><line class="c" x1="91.5" y1="578.5" x2="90" y2="566.5"/><line class="c" x1="118.5" y1="578.5" x2="120" y2="566.5"/><line class="c" x1="91.5" y1="578.5" x2="100.5" y2="614.5"/><line class="c" x1="109.5" y1="614.5" x2="118.5" y2="578.5"/><line class="c" x1="130.5" y1="614.5" x2="135" y2="626.5"/><line class="c" x1="139.5" y1="614.5" x2="135" y2="626.5"/><line class="c" x1="121.5" y1="578.5" x2="120" y2="566.5"/><line class="c" x1="148.5" y1="578.5" x2="150" y2="566.5"/><line class="c" x1="121.5" y1="578.5" x2="130.5" y2="614.5"/><line class="c" x1="139.5" y1="614.5" x2="148.5" y2="578.5"/><line class="c" x1="160.5" y1="614.5" x2="165" y2="626.5"/><line class="c" x1="169.5" y1="614.5" x2="165" y2="626.5"/><line class="c" x1="151.5" y1="578.5" x2="150" y2="566.5"/><line class="c" x1="178.5" y1="578.5" x2="180" y2="566.5"/><line class="c" x1="151.5" y1="578.5" x2="160.5" y2="614.5"/><line class="c" x1="169.5" y1="614.5" x2="178.5" y2="578.5"/><line class="c" x1="190.5" y1="614.5" x2="195" y2="626.5"/><line class="c" x1="199.5" y1="614.5" x2="195" y2="626.5"/><line class="c" x1="181.5" y1="578.5" x2="180" y2="566.5"/><line class="c" x1="208.5" y1="578.5" x2="210" y2="566.5"/><line class="c" x1="181.5" y1="578.5" x2="190.5" y2="614.5"/><line class="c" x1="199.5" y1="614.5" x2="208.5" y2="578.5"/><line class="c" x1="220.5" y1="614.5" x2="225" y2="626.5"/><line class="c" x1="229.5" y1="614.5" x2="225" y2="626.5"/><line class="c" x1="211.5" y1="578.5" x2="210" y2="566.5"/><line class="c" x1="238.5" y1="578.5" x2="240" y2="566.5"/><line class="c" x1="211.5" y1="578.5" x2="220.5" y2="614.5"/><line class="c" x1="229.5" y1="614.5" x2="238.5" y2="578.5"/><line class="c" x1="250.5" y1="614.5" x2="255" y2="626.5"/><line class="c" x1="241.5" y1="578.5" x2="240" y2="566.5"/><line class="c" x1="241.5" y1="578.5" x2="250.5" y2="614.5"/><line class="c" x1="49.5" y1="614.5" x2="45" y2="626.5"/><line class="c" x1="58.5" y1="578.5" x2="60" y2="566.5"/><line class="c" x1="49.5" y1="614.5" x2="58.5" y2="578.5"/><line class="c" x1="70.5" y1="494.5" x2="75" y2="506.5"/><line class="c" x1="79.5" y1="494.5" x2="75" y2="506.5"/><line class="c" x1="61.5" y1="458.5" x2="60" y2="446.5"/><line class="c" x1="88.5" y1="458.5" x2="90" y2="446.5"/><line class="c" x1="61.5" y1="458.5" x2="70.5" y2="494.5"/><line class="c" x1="79.5" y1="494.5" x2="88.5" y2="458.5"/><line class="c" x1="100.5" y1="494.5" x2="105" y2="506.5"/><line class="c" x1="109.5" y1="494.5" x2="105" y2="506.5"/><line class="c" x1="91.5" y1="458.5" x2="90" y2="446.5"/><line class="c" x1="118.5" y1="458.5" x2="120" y2="446.5"/><line class="c" x1="91.5" y1="458.5" x2="100.5" y2="494.5"/><line class="c" x1="109.5" y1="494.5" x2="118.5" y2="458.5"/><line class="c" x1="130.5" y1="494.5" x2="135" y2="506.5"/><line class="c" x1="139.5" y1="494.5" x2="135" y2="506.5"/><line class="c" x1="121.5" y1="458.5" x2="120" y2="446.5"/><line class="c" x1="148.5" y1="458.5" x2="150" y2="446.5"/><line class="c" x1="121.5" y1="458.5" x2="130.5" y2="494.5"/><line class="c" x1="139.5" y1="494.5" x2="148.5" y2="458.5"/><line class="c" x1="160.5" y1="494.5" x2="165" y2="506.5"/><line class="c" x1="169.5" y1="494.5" x2="165" y2="506.5"/><line class="c" x1="151.5" y1="458.5" x2="150" y2="446.5"/><line class="c" x1="178.5" y1="458.5" x2="180" y2="446.5"/><line class="c" x1="151.5" y1="458.5" x2="160.5" y2="494.5"/><line class="c" x1="169.5" y1="494.5" x2="178.5" y2="458.5"/><line class="c" x1="190.5" y1="494.5" x2="195" y2="506.5"/><line class="c" x1="199.5" y1="494.5" x2="195" y2="506.5"/><line class="c" x1="181.5" y1="458.5" x2="180" y2="446.5"/><line class="c" x1="208.5" y1="458.5" x2="210" y2="446.5"/><line class="c" x1="181.5" y1="458.5" x2="190.5" y2="494.5"/><line class="c" x1="199.5" y1="494.5" x2="208.5" y2="458.5"/><line class="c" x1="220.5" y1="494.5" x2="225" y2="506.5"/><line class="c" x1="229.5" y1="494.5" x2="225" y2="506.5"/><line class="c" x1="211.5" y1="458.5" x2="210" y2="446.5"/><line class="c" x1="238.5" y1="458.5" x2="240" y2="446.5"/><line class="c" x1="211.5" y1="458.5" x2="220.5" y2="494.5"/><line class="c" x1="229.5" y1="494.5" x2="238.5" y2="458.5"/><line class="c" x1="250.5" y1="494.5" x2="255" y2="506.5"/><line class="c" x1="241.5" y1="458.5" x2="240" y2="446.5"/><line class="c" x1="241.5" y1="458.5" x2="250.5" y2="494.5"/><line class="c" x1="49.5" y1="494.5" x2="45" y2="506.5"/><line class="c" x1="58.5" y1="458.5" x2="60" y2="446.5"/><line class="c" x1="49.5" y1="494.5" x2="58.5" y2="458.5"/><line class="c" x1="70.5" y1="374.5" x2="75" y2="386.5"/><line class="c" x1="79.5" y1="374.5" x2="75" y2="386.5"/><line class="c" x1="61.5" y1="338.5" x2="60" y2="326.5"/><line class="c" x1="88.5" y1="338.5" x2="90" y2="326.5"/><line class="c" x1="61.5" y1="338.5" x2="70.5" y2="374.5"/><line class="c" x1="79.5" y1="374.5" x2="88.5" y2="338.5"/><line class="c" x1="100.5" y1="374.5" x2="105" y2="386.5"/><line class="c" x1="109.5" y1="374.5" x2="105" y2="386.5"/><line class="c" x1="91.5" y1="338.5" x2="90" y2="326.5"/><line class="c" x1="118.5" y1="338.5" x2="120" y2="326.5"/><line class="c" x1="91.5" y1="338.5" x2="100.5" y2="374.5"/><line class="c" x1="109.5" y1="374.5" x2="118.5" y2="338.5"/><line class="c" x1="130.5" y1="374.5" x2="135" y2="386.5"/><line class="c" x1="139.5" y1="374.5" x2="135" y2="386.5"/><line class="c" x1="121.5" y1="338.5" x2="120" y2="326.5"/><line class="c" x1="148.5" y1="338.5" x2="150" y2="326.5"/><line class="c" x1="121.5" y1="338.5" x2="130.5" y2="374.5"/><line class="c" x1="139.5" y1="374.5" x2="148.5" y2="338.5"/><line class="c" x1="160.5" y1="374.5" x2="165" y2="386.5"/><line class="c" x1="169.5" y1="374.5" x2="165" y2="386.5"/><line class="c" x1="151.5" y1="338.5" x2="150" y2="326.5"/><line class="c" x1="178.5" y1="338.5" x2="180" y2="326.5"/><line class="c" x1="151.5" y1="338.5" x2="160.5" y2="374.5"/><line class="c" x1="169.5" y1="374.5" x2="178.5" y2="338.5"/><line class="c" x1="190.5" y1="374.5" x2="195" y2="386.5"/><line class="c" x1="199.5" y1="374.5" x2="195" y2="386.5"/><line class="c" x1="181.5" y1="338.5" x2="180" y2="326.5"/><line class="c" x1="208.5" y1="338.5" x2="210" y2="326.5"/><line class="c" x1="181.5" y1="338.5" x2="190.5" y2="374.5"/><line class="c" x1="199.5" y1="374.5" x2="208.5" y2="338.5"/><line class="c" x1="220.5" y1="374.5" x2="225" y2="386.5"/><line class="c" x1="229.5" y1="374.5" x2="225" y2="386.5"/><line class="c" x1="211.5" y1="338.5" x2="210" y2="326.5"/><line class="c" x1="238.5" y1="338.5" x2="240" y2="326.5"/><line class="c" x1="211.5" y1="338.5" x2="220.5" y2="374.5"/><line class="c" x1="229.5" y1="374.5" x2="238.5" y2="338.5"/><line class="c" x1="250.5" y1="374.5" x2="255" y2="386.5"/><line class="c" x1="241.5" y1="338.5" x2="240" y2="326.5"/><line class="c" x1="241.5" y1="338.5" x2="250.5" y2="374.5"/><line class="c" x1="49.5" y1="374.5" x2="45" y2="386.5"/><line class="c" x1="58.5" y1="338.5" x2="60" y2="326.5"/><line class="c" x1="49.5" y1="374.5" x2="58.5" y2="338.5"/><line class="c" x1="70.5" y1="254.5" x2="75" y2="266.5"/><line class="c" x1="79.5" y1="254.5" x2="75" y2="266.5"/><line class="c" x1="61.5" y1="218.5" x2="60" y2="206.5"/><line class="c" x1="88.5" y1="218.5" x2="90" y2="206.5"/><line class="c" x1="61.5" y1="218.5" x2="70.5" y2="254.5"/><line class="c" x1="79.5" y1="254.5" x2="88.5" y2="218.5"/><line class="c" x1="100.5" y1="254.5" x2="105" y2="266.5"/><line class="c" x1="109.5" y1="254.5" x2="105" y2="266.5"/><line class="c" x1="91.5" y1="218.5" x2="90" y2="206.5"/><line class="c" x1="118.5" y1="218.5" x2="120" y2="206.5"/><line class="c" x1="91.5" y1="218.5" x2="100.5" y2="254.5"/><line class="c" x1="109.5" y1="254.5" x2="118.5" y2="218.5"/><line class="c" x1="130.5" y1="254.5" x2="135" y2="266.5"/><line class="c" x1="139.5" y1="254.5" x2="135" y2="266.5"/><line class="c" x1="121.5" y1="218.5" x2="120" y2="206.5"/><line class="c" x1="148.5" y1="218.5" x2="150" y2="206.5"/><line class="c" x1="121.5" y1="218.5" x2="130.5" y2="254.5"/><line class="c" x1="139.5" y1="254.5" x2="148.5" y2="218.5"/><line class="c" x1="160.5" y1="254.5" x2="165" y2="266.5"/><line class="c" x1="169.5" y1="254.5" x2="165" y2="266.5"/><line class="c" x1="151.5" y1="218.5" x2="150" y2="206.5"/><line class="c" x1="178.5" y1="218.5" x2="180" y2="206.5"/><line class="c" x1="151.5" y1="218.5" x2="160.5" y2="254.5"/><line class="c" x1="169.5" y1="254.5" x2="178.5" y2="218.5"/><line class="c" x1="190.5" y1="254.5" x2="195" y2="266.5"/><line class="c" x1="199.5" y1="254.5" x2="195" y2="266.5"/><line class="c" x1="181.5" y1="218.5" x2="180" y2="206.5"/><line class="c" x1="208.5" y1="218.5" x2="210" y2="206.5"/><line class="c" x1="181.5" y1="218.5" x2="190.5" y2="254.5"/><line class="c" x1="199.5" y1="254.5" x2="208.5" y2="218.5"/><line class="c" x1="220.5" y1="254.5" x2="225" y2="266.5"/><line class="c" x1="229.5" y1="254.5" x2="225" y2="266.5"/><line class="c" x1="211.5" y1="218.5" x2="210" y2="206.5"/><line class="c" x1="238.5" y1="218.5" x2="240" y2="206.5"/><line class="c" x1="211.5" y1="218.5" x2="220.5" y2="254.5"/><line class="c" x1="229.5" y1="254.5" x2="238.5" y2="218.5"/><line class="c" x1="250.5" y1="254.5" x2="255" y2="266.5"/><line class="c" x1="241.5" y1="218.5" x2="240" y2="206.5"/><line class="c" x1="241.5" y1="218.5" x2="250.5" y2="254.5"/><line class="c" x1="49.5" y1="254.5" x2="45" y2="266.5"/><line class="c" x1="58.5" y1="218.5" x2="60" y2="206.5"/><line class="c" x1="49.5" y1="254.5" x2="58.5" y2="218.5"/><line class="c" x1="55.5" y1="674.5" x2="60" y2="686.5"/><line class="c" x1="64.5" y1="674.5" x2="60" y2="686.5"/><line class="c" x1="46.5" y1="638.5" x2="45" y2="626.5"/><line class="c" x1="73.5" y1="638.5" x2="75" y2="626.5"/><line class="c" x1="46.5" y1="638.5" x2="55.5" y2="674.5"/><line class="c" x1="64.5" y1="674.5" x2="73.5" y2="638.5"/><line class="c" x1="85.5" y1="674.5" x2="90" y2="686.5"/><line class="c" x1="94.5" y1="674.5" x2="90" y2="686.5"/><line class="c" x1="76.5" y1="638.5" x2="75" y2="626.5"/><line class="c" x1="103.5" y1="638.5" x2="105" y2="626.5"/><line class="c" x1="76.5" y1="638.5" x2="85.5" y2="674.5"/><line class="c" x1="94.5" y1="674.5" x2="103.5" y2="638.5"/><line class="c" x1="115.5" y1="674.5" x2="120" y2="686.5"/><line class="c" x1="124.5" y1="674.5" x2="120" y2="686.5"/><line class="c" x1="106.5" y1="638.5" x2="105" y2="626.5"/><line class="c" x1="133.5" y1="638.5" x2="135" y2="626.5"/><line class="c" x1="106.5" y1="638.5" x2="115.5" y2="674.5"/><line class="c" x1="124.5" y1="674.5" x2="133.5" y2="638.5"/><line class="c" x1="145.5" y1="674.5" x2="150" y2="686.5"/><line class="c" x1="154.5" y1="674.5" x2="150" y2="686.5"/><line class="c" x1="136.5" y1="638.5" x2="135" y2="626.5"/><line class="c" x1="163.5" y1="638.5" x2="165" y2="626.5"/><line class="c" x1="136.5" y1="638.5" x2="145.5" y2="674.5"/><line class="c" x1="154.5" y1="674.5" x2="163.5" y2="638.5"/><line class="c" x1="175.5" y1="674.5" x2="180" y2="686.5"/><line class="c" x1="184.5" y1="674.5" x2="180" y2="686.5"/><line class="c" x1="166.5" y1="638.5" x2="165" y2="626.5"/><line class="c" x1="193.5" y1="638.5" x2="195" y2="626.5"/><line class="c" x1="166.5" y1="638.5" x2="175.5" y2="674.5"/><line class="c" x1="184.5" y1="674.5" x2="193.5" y2="638.5"/><line class="c" x1="205.5" y1="674.5" x2="210" y2="686.5"/><line class="c" x1="214.5" y1="674.5" x2="210" y2="686.5"/><line class="c" x1="196.5" y1="638.5" x2="195" y2="626.5"/><line class="c" x1="223.5" y1="638.5" x2="225" y2="626.5"/><line class="c" x1="196.5" y1="638.5" x2="205.5" y2="674.5"/><line class="c" x1="214.5" y1="674.5" x2="223.5" y2="638.5"/><line class="c" x1="235.5" y1="674.5" x2="240" y2="686.5"/><line class="c" x1="226.5" y1="638.5" x2="225" y2="626.5"/><line class="c" x1="226.5" y1="638.5" x2="235.5" y2="674.5"/><line class="c" x1="244.5" y1="674.5" x2="240" y2="686.5"/><line class="c" x1="253.5" y1="638.5" x2="255" y2="626.5"/><line class="c" x1="244.5" y1="674.5" x2="253.5" y2="638.5"/><line class="c" x1="55.5" y1="554.5" x2="60" y2="566.5"/><line class="c" x1="64.5" y1="554.5" x2="60" y2="566.5"/><line class="c" x1="46.5" y1="518.5" x2="45" y2="506.5"/><line class="c" x1="73.5" y1="518.5" x2="75" y2="506.5"/><line class="c" x1="46.5" y1="518.5" x2="55.5" y2="554.5"/><line class="c" x1="64.5" y1="554.5" x2="73.5" y2="518.5"/><line class="c" x1="85.5" y1="554.5" x2="90" y2="566.5"/><line class="c" x1="94.5" y1="554.5" x2="90" y2="566.5"/><line class="c" x1="76.5" y1="518.5" x2="75" y2="506.5"/><line class="c" x1="103.5" y1="518.5" x2="105" y2="506.5"/><line class="c" x1="76.5" y1="518.5" x2="85.5" y2="554.5"/><line class="c" x1="94.5" y1="554.5" x2="103.5" y2="518.5"/><line class="c" x1="115.5" y1="554.5" x2="120" y2="566.5"/><line class="c" x1="124.5" y1="554.5" x2="120" y2="566.5"/><line class="c" x1="106.5" y1="518.5" x2="105" y2="506.5"/><line class="c" x1="133.5" y1="518.5" x2="135" y2="506.5"/><line class="c" x1="106.5" y1="518.5" x2="115.5" y2="554.5"/><line class="c" x1="124.5" y1="554.5" x2="133.5" y2="518.5"/><line class="c" x1="145.5" y1="554.5" x2="150" y2="566.5"/><line class="c" x1="154.5" y1="554.5" x2="150" y2="566.5"/><line class="c" x1="136.5" y1="518.5" x2="135" y2="506.5"/><line class="c" x1="163.5" y1="518.5" x2="165" y2="506.5"/><line class="c" x1="136.5" y1="518.5" x2="145.5" y2="554.5"/><line class="c" x1="154.5" y1="554.5" x2="163.5" y2="518.5"/><line class="c" x1="175.5" y1="554.5" x2="180" y2="566.5"/><line class="c" x1="184.5" y1="554.5" x2="180" y2="566.5"/><line class="c" x1="166.5" y1="518.5" x2="165" y2="506.5"/><line class="c" x1="193.5" y1="518.5" x2="195" y2="506.5"/><line class="c" x1="166.5" y1="518.5" x2="175.5" y2="554.5"/><line class="c" x1="184.5" y1="554.5" x2="193.5" y2="518.5"/><line class="c" x1="205.5" y1="554.5" x2="210" y2="566.5"/><line class="c" x1="214.5" y1="554.5" x2="210" y2="566.5"/><line class="c" x1="196.5" y1="518.5" x2="195" y2="506.5"/><line class="c" x1="223.5" y1="518.5" x2="225" y2="506.5"/><line class="c" x1="196.5" y1="518.5" x2="205.5" y2="554.5"/><line class="c" x1="214.5" y1="554.5" x2="223.5" y2="518.5"/><line class="c" x1="235.5" y1="554.5" x2="240" y2="566.5"/><line class="c" x1="226.5" y1="518.5" x2="225" y2="506.5"/><line class="c" x1="226.5" y1="518.5" x2="235.5" y2="554.5"/><line class="c" x1="244.5" y1="554.5" x2="240" y2="566.5"/><line class="c" x1="253.5" y1="518.5" x2="255" y2="506.5"/><line class="c" x1="244.5" y1="554.5" x2="253.5" y2="518.5"/><line class="c" x1="55.5" y1="434.5" x2="60" y2="446.5"/><line class="c" x1="64.5" y1="434.5" x2="60" y2="446.5"/><line class="c" x1="46.5" y1="398.5" x2="45" y2="386.5"/><line class="c" x1="73.5" y1="398.5" x2="75" y2="386.5"/><line class="c" x1="46.5" y1="398.5" x2="55.5" y2="434.5"/><line class="c" x1="64.5" y1="434.5" x2="73.5" y2="398.5"/><line class="c" x1="85.5" y1="434.5" x2="90" y2="446.5"/><line class="c" x1="94.5" y1="434.5" x2="90" y2="446.5"/><line class="c" x1="76.5" y1="398.5" x2="75" y2="386.5"/><line class="c" x1="103.5" y1="398.5" x2="105" y2="386.5"/><line class="c" x1="76.5" y1="398.5" x2="85.5" y2="434.5"/><line class="c" x1="94.5" y1="434.5" x2="103.5" y2="398.5"/><line class="c" x1="115.5" y1="434.5" x2="120" y2="446.5"/><line class="c" x1="124.5" y1="434.5" x2="120" y2="446.5"/><line class="c" x1="106.5" y1="398.5" x2="105" y2="386.5"/><line class="c" x1="133.5" y1="398.5" x2="135" y2="386.5"/><line class="c" x1="106.5" y1="398.5" x2="115.5" y2="434.5"/><line class="c" x1="124.5" y1="434.5" x2="133.5" y2="398.5"/><line class="c" x1="145.5" y1="434.5" x2="150" y2="446.5"/><line class="c" x1="154.5" y1="434.5" x2="150" y2="446.5"/><line class="c" x1="136.5" y1="398.5" x2="135" y2="386.5"/><line class="c" x1="163.5" y1="398.5" x2="165" y2="386.5"/><line class="c" x1="136.5" y1="398.5" x2="145.5" y2="434.5"/><line class="c" x1="154.5" y1="434.5" x2="163.5" y2="398.5"/><line class="c" x1="175.5" y1="434.5" x2="180" y2="446.5"/><line class="c" x1="184.5" y1="434.5" x2="180" y2="446.5"/><line class="c" x1="166.5" y1="398.5" x2="165" y2="386.5"/><line class="c" x1="193.5" y1="398.5" x2="195" y2="386.5"/><line class="c" x1="166.5" y1="398.5" x2="175.5" y2="434.5"/><line class="c" x1="184.5" y1="434.5" x2="193.5" y2="398.5"/><line class="c" x1="205.5" y1="434.5" x2="210" y2="446.5"/><line class="c" x1="214.5" y1="434.5" x2="210" y2="446.5"/><line class="c" x1="196.5" y1="398.5" x2="195" y2="386.5"/><line class="c" x1="223.5" y1="398.5" x2="225" y2="386.5"/><line class="c" x1="196.5" y1="398.5" x2="205.5" y2="434.5"/><line class="c" x1="214.5" y1="434.5" x2="223.5" y2="398.5"/><line class="c" x1="235.5" y1="434.5" x2="240" y2="446.5"/><line class="c" x1="226.5" y1="398.5" x2="225" y2="386.5"/><line class="c" x1="226.5" y1="398.5" x2="235.5" y2="434.5"/><line class="c" x1="244.5" y1="434.5" x2="240" y2="446.5"/><line class="c" x1="253.5" y1="398.5" x2="255" y2="386.5"/><line class="c" x1="244.5" y1="434.5" x2="253.5" y2="398.5"/><line class="c" x1="55.5" y1="314.5" x2="60" y2="326.5"/><line class="c" x1="64.5" y1="314.5" x2="60" y2="326.5"/><line class="c" x1="46.5" y1="278.5" x2="45" y2="266.5"/><line class="c" x1="73.5" y1="278.5" x2="75" y2="266.5"/><line class="c" x1="46.5" y1="278.5" x2="55.5" y2="314.5"/><line class="c" x1="64.5" y1="314.5" x2="73.5" y2="278.5"/><line class="c" x1="85.5" y1="314.5" x2="90" y2="326.5"/><line class="c" x1="94.5" y1="314.5" x2="90" y2="326.5"/><line class="c" x1="76.5" y1="278.5" x2="75" y2="266.5"/><line class="c" x1="103.5" y1="278.5" x2="105" y2="266.5"/><line class="c" x1="76.5" y1="278.5" x2="85.5" y2="314.5"/><line class="c" x1="94.5" y1="314.5" x2="103.5" y2="278.5"/><line class="c" x1="115.5" y1="314.5" x2="120" y2="326.5"/><line class="c" x1="124.5" y1="314.5" x2="120" y2="326.5"/><line class="c" x1="106.5" y1="278.5" x2="105" y2="266.5"/><line class="c" x1="133.5" y1="278.5" x2="135" y2="266.5"/><line class="c" x1="106.5" y1="278.5" x2="115.5" y2="314.5"/><line class="c" x1="124.5" y1="314.5" x2="133.5" y2="278.5"/><line class="c" x1="145.5" y1="314.5" x2="150" y2="326.5"/><line class="c" x1="154.5" y1="314.5" x2="150" y2="326.5"/><line class="c" x1="136.5" y1="278.5" x2="135" y2="266.5"/><line class="c" x1="163.5" y1="278.5" x2="165" y2="266.5"/><line class="c" x1="136.5" y1="278.5" x2="145.5" y2="314.5"/><line class="c" x1="154.5" y1="314.5" x2="163.5" y2="278.5"/><line class="c" x1="175.5" y1="314.5" x2="180" y2="326.5"/><line class="c" x1="184.5" y1="314.5" x2="180" y2="326.5"/><line class="c" x1="166.5" y1="278.5" x2="165" y2="266.5"/><line class="c" x1="193.5" y1="278.5" x2="195" y2="266.5"/><line class="c" x1="166.5" y1="278.5" x2="175.5" y2="314.5"/><line class="c" x1="184.5" y1="314.5" x2="193.5" y2="278.5"/><line class="c" x1="205.5" y1="314.5" x2="210" y2="326.5"/><line class="c" x1="214.5" y1="314.5" x2="210" y2="326.5"/><line class="c" x1="196.5" y1="278.5" x2="195" y2="266.5"/><line class="c" x1="223.5" y1="278.5" x2="225" y2="266.5"/><line class="c" x1="196.5" y1="278.5" x2="205.5" y2="314.5"/><line class="c" x1="214.5" y1="314.5" x2="223.5" y2="278.5"/><line class="c" x1="235.5" y1="314.5" x2="240" y2="326.5"/><line class="c" x1="226.5" y1="278.5" x2="225" y2="266.5"/><line class="c" x1="226.5" y1="278.5" x2="235.5" y2="314.5"/><line class="c" x1="244.5" y1="314.5" x2="240" y2="326.5"/><line class="c" x1="253.5" y1="278.5" x2="255" y2="266.5"/><line class="c" x1="244.5" y1="314.5" x2="253.5" y2="278.5"/><line class="c" x1="55.5" y1="200.5" x2="60" y2="206.5"/><line class="c" x1="64.5" y1="200.5" x2="60" y2="206.5"/><line class="c" x1="46.5" y1="182.5" x2="45" y2="176.5"/><line class="c" x1="73.5" y1="182.5" x2="75" y2="176.5"/><line class="c" x1="46.5" y1="182.5" x2="55.5" y2="200.5"/><line class="c" x1="64.5" y1="200.5" x2="73.5" y2="182.5"/><line class="c" x1="85.5" y1="200.5" x2="90" y2="206.5"/><line class="c" x1="94.5" y1="200.5" x2="90" y2="206.5"/><line class="c" x1="76.5" y1="182.5" x2="75" y2="176.5"/><line class="c" x1="103.5" y1="182.5" x2="105" y2="176.5"/><line class="c" x1="76.5" y1="182.5" x2="85.5" y2="200.5"/><line class="c" x1="94.5" y1="200.5" x2="103.5" y2="182.5"/><line class="c" x1="115.5" y1="200.5" x2="120" y2="206.5"/><line class="c" x1="124.5" y1="200.5" x2="120" y2="206.5"/><line class="c" x1="106.5" y1="182.5" x2="105" y2="176.5"/><line class="c" x1="133.5" y1="182.5" x2="135" y2="176.5"/><line class="c" x1="106.5" y1="182.5" x2="115.5" y2="200.5"/><line class="c" x1="124.5" y1="200.5" x2="133.5" y2="182.5"/><line class="c" x1="145.5" y1="200.5" x2="150" y2="206.5"/><line class="c" x1="154.5" y1="200.5" x2="150" y2="206.5"/><line class="c" x1="136.5" y1="182.5" x2="135" y2="176.5"/><line class="c" x1="163.5" y1="182.5" x2="165" y2="176.5"/><line class="c" x1="136.5" y1="182.5" x2="145.5" y2="200.5"/><line class="c" x1="154.5" y1="200.5" x2="163.5" y2="182.5"/><line class="c" x1="175.5" y1="200.5" x2="180" y2="206.5"/><line class="c" x1="184.5" y1="200.5" x2="180" y2="206.5"/><line class="c" x1="166.5" y1="182.5" x2="165" y2="176.5"/><line class="c" x1="193.5" y1="182.5" x2="195" y2="176.5"/><line class="c" x1="166.5" y1="182.5" x2="175.5" y2="200.5"/><line class="c" x1="184.5" y1="200.5" x2="193.5" y2="182.5"/><line class="c" x1="205.5" y1="200.5" x2="210" y2="206.5"/><line class="c" x1="214.5" y1="200.5" x2="210" y2="206.5"/><line class="c" x1="196.5" y1="182.5" x2="195" y2="176.5"/><line class="c" x1="223.5" y1="182.5" x2="225" y2="176.5"/><line class="c" x1="196.5" y1="182.5" x2="205.5" y2="200.5"/><line class="c" x1="214.5" y1="200.5" x2="223.5" y2="182.5"/><line class="c" x1="235.5" y1="200.5" x2="240" y2="206.5"/><line class="c" x1="226.5" y1="182.5" x2="225" y2="176.5"/><line class="c" x1="226.5" y1="182.5" x2="235.5" y2="200.5"/><line class="c" x1="244.5" y1="200.5" x2="240" y2="206.5"/><line class="c" x1="253.5" y1="182.5" x2="255" y2="176.5"/><line class="c" x1="244.5" y1="200.5" x2="253.5" y2="182.5"/><line class="c" x1="70.5" y1="173.5" x2="75" y2="176.5"/><line class="c" x1="79.5" y1="173.5" x2="75" y2="176.5"/><line class="c" x1="61.5" y1="164.5" x2="60" y2="161.5"/><line class="c" x1="88.5" y1="164.5" x2="90" y2="161.5"/><line class="c" x1="61.5" y1="164.5" x2="70.5" y2="173.5"/><line class="c" x1="79.5" y1="173.5" x2="88.5" y2="164.5"/><line class="c" x1="100.5" y1="173.5" x2="105" y2="176.5"/><line class="c" x1="109.5" y1="173.5" x2="105" y2="176.5"/><line class="c" x1="91.5" y1="164.5" x2="90" y2="161.5"/><line class="c" x1="118.5" y1="164.5" x2="120" y2="161.5"/><line class="c" x1="91.5" y1="164.5" x2="100.5" y2="173.5"/><line class="c" x1="109.5" y1="173.5" x2="118.5" y2="164.5"/><line class="c" x1="130.5" y1="173.5" x2="135" y2="176.5"/><line class="c" x1="139.5" y1="173.5" x2="135" y2="176.5"/><line class="c" x1="121.5" y1="164.5" x2="120" y2="161.5"/><line class="c" x1="148.5" y1="164.5" x2="150" y2="161.5"/><line class="c" x1="121.5" y1="164.5" x2="130.5" y2="173.5"/><line class="c" x1="139.5" y1="173.5" x2="148.5" y2="164.5"/><line class="c" x1="160.5" y1="173.5" x2="165" y2="176.5"/><line class="c" x1="169.5" y1="173.5" x2="165" y2="176.5"/><line class="c" x1="151.5" y1="164.5" x2="150" y2="161.5"/><line class="c" x1="178.5" y1="164.5" x2="180" y2="161.5"/><line class="c" x1="151.5" y1="164.5" x2="160.5" y2="173.5"/><line class="c" x1="169.5" y1="173.5" x2="178.5" y2="164.5"/><line class="c" x1="190.5" y1="173.5" x2="195" y2="176.5"/><line class="c" x1="199.5" y1="173.5" x2="195" y2="176.5"/><line class="c" x1="181.5" y1="164.5" x2="180" y2="161.5"/><line class="c" x1="208.5" y1="164.5" x2="210" y2="161.5"/><line class="c" x1="181.5" y1="164.5" x2="190.5" y2="173.5"/><line class="c" x1="199.5" y1="173.5" x2="208.5" y2="164.5"/><line class="c" x1="220.5" y1="173.5" x2="225" y2="176.5"/><line class="c" x1="229.5" y1="173.5" x2="225" y2="176.5"/><line class="c" x1="211.5" y1="164.5" x2="210" y2="161.5"/><line class="c" x1="238.5" y1="164.5" x2="240" y2="161.5"/><line class="c" x1="211.5" y1="164.5" x2="220.5" y2="173.5"/><line class="c" x1="229.5" y1="173.5" x2="238.5" y2="164.5"/><line class="c" x1="250.5" y1="173.5" x2="255" y2="176.5"/><line class="c" x1="241.5" y1="164.5" x2="240" y2="161.5"/><line class="c" x1="241.5" y1="164.5" x2="250.5" y2="173.5"/><line class="c" x1="49.5" y1="173.5" x2="45" y2="176.5"/><line class="c" x1="58.5" y1="164.5" x2="60" y2="161.5"/><line class="c" x1="49.5" y1="173.5" x2="58.5" y2="164.5"/><line class="c" x1="55.5" y1="158.5" x2="60" y2="161.5"/><line class="c" x1="64.5" y1="158.5" x2="60" y2="161.5"/><line class="c" x1="46.5" y1="149.5" x2="45" y2="146.5"/><line class="c" x1="73.5" y1="149.5" x2="75" y2="146.5"/><line class="c" x1="46.5" y1="149.5" x2="55.5" y2="158.5"/><line class="c" x1="64.5" y1="158.5" x2="73.5" y2="149.5"/><line class="c" x1="85.5" y1="158.5" x2="90" y2="161.5"/><line class="c" x1="94.5" y1="158.5" x2="90" y2="161.5"/><line class="c" x1="76.5" y1="149.5" x2="75" y2="146.5"/><line class="c" x1="103.5" y1="149.5" x2="105" y2="146.5"/><line class="c" x1="76.5" y1="149.5" x2="85.5" y2="158.5"/><line class="c" x1="94.5" y1="158.5" x2="103.5" y2="149.5"/><line class="c" x1="115.5" y1="158.5" x2="120" y2="161.5"/><line class="c" x1="124.5" y1="158.5" x2="120" y2="161.5"/><line class="c" x1="106.5" y1="149.5" x2="105" y2="146.5"/><line class="c" x1="133.5" y1="149.5" x2="135" y2="146.5"/><line class="c" x1="106.5" y1="149.5" x2="115.5" y2="158.5"/><line class="c" x1="124.5" y1="158.5" x2="133.5" y2="149.5"/><line class="c" x1="145.5" y1="158.5" x2="150" y2="161.5"/><line class="c" x1="154.5" y1="158.5" x2="150" y2="161.5"/><line class="c" x1="136.5" y1="149.5" x2="135" y2="146.5"/><line class="c" x1="163.5" y1="149.5" x2="165" y2="146.5"/><line class="c" x1="136.5" y1="149.5" x2="145.5" y2="158.5"/><line class="c" x1="154.5" y1="158.5" x2="163.5" y2="149.5"/><line class="c" x1="175.5" y1="158.5" x2="180" y2="161.5"/><line class="c" x1="184.5" y1="158.5" x2="180" y2="161.5"/><line class="c" x1="166.5" y1="149.5" x2="165" y2="146.5"/><line class="c" x1="193.5" y1="149.5" x2="195" y2="146.5"/><line class="c" x1="166.5" y1="149.5" x2="175.5" y2="158.5"/><line class="c" x1="184.5" y1="158.5" x2="193.5" y2="149.5"/><line class="c" x1="205.5" y1="158.5" x2="210" y2="161.5"/><line class="c" x1="214.5" y1="158.5" x2="210" y2="161.5"/><line class="c" x1="196.5" y1="149.5" x2="195" y2="146.5"/><line class="c" x1="223.5" y1="149.5" x2="225" y2="146.5"/><line class="c" x1="196.5" y1="149.5" x2="205.5" y2="158.5"/><line class="c" x1="214.5" y1="158.5" x2="223.5" y2="149.5"/><line class="c" x1="235.5" y1="158.5" x2="240" y2="161.5"/><line class="c" x1="226.5" y1="149.5" x2="225" y2="146.5"/><line class="c" x1="226.5" y1="149.5" x2="235.5" y2="158.5"/><line class="c" x1="244.5" y1="158.5" x2="240" y2="161.5"/><line class="c" x1="253.5" y1="149.5" x2="255" y2="146.5"/><line class="c" x1="244.5" y1="158.5" x2="253.5" y2="149.5"/><line class="c" x1="45" y1="145" x2="75" y2="175"/><line class="c" x1="75" y1="145" x2="45" y2="175"/><line class="c" x1="105" y1="145" x2="75" y2="175"/><line class="c" x1="135" y1="145" x2="105" y2="175"/><line class="c" x1="165" y1="145" x2="135" y2="175"/><line class="c" x1="195" y1="145" x2="165" y2="175"/><line class="c" x1="225" y1="145" x2="195" y2="175"/><line class="c" x1="255" y1="145" x2="225" y2="175"/><line class="c" x1="75" y1="145" x2="105" y2="175"/><line class="c" x1="105" y1="145" x2="135" y2="175"/><line class="c" x1="135" y1="145" x2="165" y2="175"/><line class="c" x1="165" y1="145" x2="195" y2="175"/><line class="c" x1="195" y1="145" x2="225" y2="175"/><line class="c" x1="225" y1="145" x2="255" y2="175"/><line class="c" x1="37.5" y1="160" x2="60" y2="205"/><line class="c" x1="45" y1="145" x2="30" y2="175"/><line class="c" x1="255" y1="145" x2="270" y2="175"/><line class="c" x1="262.5" y1="160" x2="240" y2="205"/><line class="c" x1="60" y1="205" x2="75" y2="175"/><line class="c" x1="90" y1="205" x2="105" y2="175"/><line class="c" x1="120" y1="205" x2="135" y2="175"/><line class="c" x1="150" y1="205" x2="165" y2="175"/><line class="c" x1="180" y1="205" x2="195" y2="175"/><line class="c" x1="210" y1="205" x2="225" y2="175"/><line class="c" x1="75" y1="175" x2="90" y2="205"/><line class="c" x1="105" y1="175" x2="120" y2="205"/><line class="c" x1="135" y1="175" x2="150" y2="205"/><line class="c" x1="165" y1="175" x2="180" y2="205"/><line class="c" x1="195" y1="175" x2="210" y2="205"/><line class="c" x1="225" y1="175" x2="240" y2="205"/><line class="c" x1="255" y1="175" x2="262.5" y2="205"/><line class="c" x1="270" y1="175" x2="262.5" y2="205"/><line class="c" x1="30" y1="175" x2="37.5" y2="205"/><line class="c" x1="45" y1="175" x2="37.5" y2="205"/><line class="c" x1="45" y1="265" x2="60" y2="205"/><line class="c" x1="75" y1="265" x2="60" y2="205"/><line class="c" x1="90" y1="205" x2="75" y2="265"/><line class="c" x1="37.5" y1="205" x2="45" y2="265"/><line class="c" x1="30" y1="265" x2="37.5" y2="205"/><line class="c" x1="105" y1="265" x2="90" y2="205"/><line class="c" x1="105" y1="265" x2="120" y2="205"/><line class="c" x1="135" y1="265" x2="120" y2="205"/><line class="c" x1="150" y1="205" x2="135" y2="265"/><line class="c" x1="165" y1="265" x2="150" y2="205"/><line class="c" x1="180" y1="205" x2="165" y2="265"/><line class="c" x1="195" y1="265" x2="210" y2="205"/><line class="c" x1="225" y1="265" x2="210" y2="205"/><line class="c" x1="240" y1="205" x2="225" y2="265"/><line class="c" x1="255" y1="265" x2="240" y2="205"/><line class="c" x1="180" y1="205" x2="195" y2="265"/><line class="c" x1="262.5" y1="205" x2="255" y2="265"/><line class="c" x1="270" y1="265" x2="262.5" y2="205"/><line class="c" x1="45" y1="265" x2="60" y2="325"/><line class="c" x1="75" y1="265" x2="60" y2="325"/><line class="c" x1="90" y1="325" x2="75" y2="265"/><line class="c" x1="37.5" y1="325" x2="45" y2="265"/><line class="c" x1="30" y1="265" x2="37.5" y2="325"/><line class="c" x1="105" y1="265" x2="90" y2="325"/><line class="c" x1="105" y1="265" x2="120" y2="325"/><line class="c" x1="135" y1="265" x2="120" y2="325"/><line class="c" x1="150" y1="325" x2="135" y2="265"/><line class="c" x1="165" y1="265" x2="150" y2="325"/><line class="c" x1="180" y1="325" x2="165" y2="265"/><line class="c" x1="195" y1="265" x2="210" y2="325"/><line class="c" x1="225" y1="265" x2="210" y2="325"/><line class="c" x1="240" y1="325" x2="225" y2="265"/><line class="c" x1="255" y1="265" x2="240" y2="325"/><line class="c" x1="180" y1="325" x2="195" y2="265"/><line class="c" x1="262.5" y1="325" x2="255" y2="265"/><line class="c" x1="270" y1="265" x2="262.5" y2="325"/><line class="c" x1="45" y1="385" x2="60" y2="325"/><line class="c" x1="75" y1="385" x2="60" y2="325"/><line class="c" x1="90" y1="325" x2="75" y2="385"/><line class="c" x1="37.5" y1="325" x2="45" y2="385"/><line class="c" x1="30" y1="385" x2="37.5" y2="325"/><line class="c" x1="105" y1="385" x2="90" y2="325"/><line class="c" x1="105" y1="385" x2="120" y2="325"/><line class="c" x1="135" y1="385" x2="120" y2="325"/><line class="c" x1="150" y1="325" x2="135" y2="385"/><line class="c" x1="165" y1="385" x2="150" y2="325"/><line class="c" x1="180" y1="325" x2="165" y2="385"/><line class="c" x1="195" y1="385" x2="210" y2="325"/><line class="c" x1="225" y1="385" x2="210" y2="325"/><line class="c" x1="240" y1="325" x2="225" y2="385"/><line class="c" x1="255" y1="385" x2="240" y2="325"/><line class="c" x1="180" y1="325" x2="195" y2="385"/><line class="c" x1="262.5" y1="325" x2="255" y2="385"/><line class="c" x1="270" y1="385" x2="262.5" y2="325"/><line class="c" x1="45" y1="385" x2="60" y2="445"/><line class="c" x1="75" y1="385" x2="60" y2="445"/><line class="c" x1="90" y1="445" x2="75" y2="385"/><line class="c" x1="37.5" y1="445" x2="45" y2="385"/><line class="c" x1="30" y1="385" x2="37.5" y2="445"/><line class="c" x1="105" y1="385" x2="90" y2="445"/><line class="c" x1="105" y1="385" x2="120" y2="445"/><line class="c" x1="135" y1="385" x2="120" y2="445"/><line class="c" x1="150" y1="445" x2="135" y2="385"/><line class="c" x1="165" y1="385" x2="150" y2="445"/><line class="c" x1="180" y1="445" x2="165" y2="385"/><line class="c" x1="195" y1="385" x2="210" y2="445"/><line class="c" x1="225" y1="385" x2="210" y2="445"/><line class="c" x1="240" y1="445" x2="225" y2="385"/><line class="c" x1="255" y1="385" x2="240" y2="445"/><line class="c" x1="180" y1="445" x2="195" y2="385"/><line class="c" x1="262.5" y1="445" x2="255" y2="385"/><line class="c" x1="270" y1="385" x2="262.5" y2="445"/><line class="c" x1="45" y1="505" x2="60" y2="445"/><line class="c" x1="75" y1="505" x2="60" y2="445"/><line class="c" x1="90" y1="445" x2="75" y2="505"/><line class="c" x1="37.5" y1="445" x2="45" y2="505"/><line class="c" x1="30" y1="505" x2="37.5" y2="445"/><line class="c" x1="105" y1="505" x2="90" y2="445"/><line class="c" x1="105" y1="505" x2="120" y2="445"/><line class="c" x1="135" y1="505" x2="120" y2="445"/><line class="c" x1="150" y1="445" x2="135" y2="505"/><line class="c" x1="165" y1="505" x2="150" y2="445"/><line class="c" x1="180" y1="445" x2="165" y2="505"/><line class="c" x1="195" y1="505" x2="210" y2="445"/><line class="c" x1="225" y1="505" x2="210" y2="445"/><line class="c" x1="240" y1="445" x2="225" y2="505"/><line class="c" x1="255" y1="505" x2="240" y2="445"/><line class="c" x1="180" y1="445" x2="195" y2="505"/><line class="c" x1="262.5" y1="445" x2="255" y2="505"/><line class="c" x1="270" y1="505" x2="262.5" y2="445"/><line class="c" x1="45" y1="505" x2="60" y2="565"/><line class="c" x1="75" y1="505" x2="60" y2="565"/><line class="c" x1="90" y1="565" x2="75" y2="505"/><line class="c" x1="37.5" y1="565" x2="45" y2="505"/><line class="c" x1="30" y1="505" x2="37.5" y2="565"/><line class="c" x1="105" y1="505" x2="90" y2="565"/><line class="c" x1="105" y1="505" x2="120" y2="565"/><line class="c" x1="135" y1="505" x2="120" y2="565"/><line class="c" x1="150" y1="565" x2="135" y2="505"/><line class="c" x1="165" y1="505" x2="150" y2="565"/><line class="c" x1="180" y1="565" x2="165" y2="505"/><line class="c" x1="195" y1="505" x2="210" y2="565"/><line class="c" x1="225" y1="505" x2="210" y2="565"/><line class="c" x1="240" y1="565" x2="225" y2="505"/><line class="c" x1="255" y1="505" x2="240" y2="565"/><line class="c" x1="180" y1="565" x2="195" y2="505"/><line class="c" x1="262.5" y1="565" x2="255" y2="505"/><line class="c" x1="270" y1="505" x2="262.5" y2="565"/><line class="c" x1="45" y1="625" x2="60" y2="565"/><line class="c" x1="75" y1="625" x2="60" y2="565"/><line class="c" x1="90" y1="565" x2="75" y2="625"/><line class="c" x1="37.5" y1="565" x2="45" y2="625"/><line class="c" x1="30" y1="625" x2="37.5" y2="565"/><line class="c" x1="105" y1="625" x2="90" y2="565"/><line class="c" x1="105" y1="625" x2="120" y2="565"/><line class="c" x1="135" y1="625" x2="120" y2="565"/><line class="c" x1="150" y1="565" x2="135" y2="625"/><line class="c" x1="165" y1="625" x2="150" y2="565"/><line class="c" x1="180" y1="565" x2="165" y2="625"/><line class="c" x1="195" y1="625" x2="210" y2="565"/><line class="c" x1="225" y1="625" x2="210" y2="565"/><line class="c" x1="240" y1="565" x2="225" y2="625"/><line class="c" x1="255" y1="625" x2="240" y2="565"/><line class="c" x1="180" y1="565" x2="195" y2="625"/><line class="c" x1="262.5" y1="565" x2="255" y2="625"/><line class="c" x1="270" y1="625" x2="262.5" y2="565"/><line class="c" x1="45" y1="625" x2="60" y2="685"/><line class="c" x1="75" y1="625" x2="60" y2="685"/><line class="c" x1="90" y1="685" x2="75" y2="625"/><line class="c" x1="37.5" y1="685" x2="45" y2="625"/><line class="c" x1="30" y1="625" x2="37.5" y2="685"/><line class="c" x1="105" y1="625" x2="90" y2="685"/><line class="c" x1="105" y1="625" x2="120" y2="685"/><line class="c" x1="135" y1="625" x2="120" y2="685"/><line class="c" x1="150" y1="685" x2="135" y2="625"/><line class="c" x1="165" y1="625" x2="150" y2="685"/><line class="c" x1="180" y1="685" x2="165" y2="625"/><line class="c" x1="195" y1="625" x2="210" y2="685"/><line class="c" x1="225" y1="625" x2="210" y2="685"/><line class="c" x1="240" y1="685" x2="225" y2="625"/><line class="c" x1="255" y1="625" x2="240" y2="685"/><line class="c" x1="180" y1="685" x2="195" y2="625"/><line class="c" x1="262.5" y1="685" x2="255" y2="625"/><line class="c" x1="270" y1="625" x2="262.5" y2="685"/><line class="c" x1="45" y1="745" x2="60" y2="685"/><line class="c" x1="75" y1="745" x2="60" y2="685"/><line class="c" x1="90" y1="685" x2="75" y2="745"/><line class="c" x1="37.5" y1="685" x2="45" y2="745"/><line class="c" x1="30" y1="745" x2="37.5" y2="685"/><line class="c" x1="105" y1="745" x2="90" y2="685"/><line class="c" x1="105" y1="745" x2="120" y2="685"/><line class="c" x1="135" y1="745" x2="120" y2="685"/><line class="c" x1="150" y1="685" x2="135" y2="745"/><line class="c" x1="165" y1="745" x2="150" y2="685"/><line class="c" x1="180" y1="685" x2="165" y2="745"/><line class="c" x1="195" y1="745" x2="210" y2="685"/><line class="c" x1="225" y1="745" x2="210" y2="685"/><line class="c" x1="240" y1="685" x2="225" y2="745"/><line class="c" x1="255" y1="745" x2="240" y2="685"/><line class="c" x1="180" y1="685" x2="195" y2="745"/><line class="c" x1="262.5" y1="685" x2="255" y2="745"/><line class="c" x1="270" y1="745" x2="262.5" y2="685"/><line class="c" x1="45" y1="745" x2="60" y2="805"/><line class="c" x1="75" y1="745" x2="60" y2="805"/><line class="c" x1="37.5" y1="805" x2="45" y2="745"/><line class="c" x1="30" y1="745" x2="37.5" y2="805"/><line class="c" x1="105" y1="745" x2="120" y2="805"/><line class="c" x1="135" y1="745" x2="120" y2="805"/><line class="c" x1="180" y1="805" x2="165" y2="745"/><line class="c" x1="240" y1="805" x2="225" y2="745"/><line class="c" x1="255" y1="745" x2="240" y2="805"/><line class="c" x1="180" y1="805" x2="195" y2="745"/><line class="c" x1="262.5" y1="805" x2="255" y2="745"/><line class="c" x1="270" y1="745" x2="262.5" y2="805"/><line class="c" x1="60" y1="805" x2="90" y2="925"/><line class="c" x1="120" y1="805" x2="90" y2="925"/><line class="c" x1="180" y1="805" x2="150" y2="925"/><line class="c" x1="120" y1="805" x2="150" y2="925"/><line class="c" x1="240" y1="805" x2="210" y2="925"/><line class="c" x1="180" y1="805" x2="210" y2="925"/><line class="c" x1="240" y1="805" x2="255" y2="925"/><line class="c" x1="60" y1="805" x2="45" y2="925"/><line class="c" x1="37.5" y1="805" x2="45" y2="925"/><line class="c" x1="262.5" y1="805" x2="255" y2="925"/><line class="c" x1="48" y1="914.5" x2="45" y2="926.5"/><line class="c" x1="60" y1="818.5" x2="60" y2="806.5"/><line class="c" x1="48" y1="914.5" x2="60" y2="818.5"/><line class="c" x1="252" y1="914.5" x2="255" y2="926.5"/><line class="c" x1="240" y1="818.5" x2="240" y2="806.5"/><line class="c" x1="252" y1="914.5" x2="240" y2="818.5"/></svg>