<svg xmlns="http://www.w3.org/2000/svg" viewBox="0 0 840 520"><defs><style>.a,.b{fill:none;stroke-linejoin:bevel;stroke-width:0.25px}.a{stroke:#228be6}.b{stroke:#fff}</style></defs><line class="a" x1="50" y1="100" x2="370" y2="100"/><line class="a" x1="50" y1="180" x2="370" y2="180"/><line class="a" x1="50" y1="260" x2="370" y2="260"/><line class="a" x1="50" y1="340" x2="370" y2="340"/><line class="a" x1="50" y1="420" x2="370" y2="420"/><line class="a" x1="130" y1="100" x2="130" y2="420"/><line class="a" x1="210" y1="100" x2="210" y2="420"/><line class="a" x1="290" y1="100" x2="290" y2="420"/><line class="a" x1="370" y1="100" x2="370" y2="420"/><line class="a" x1="150" y1="100" x2="150" y2="420"/><line class="a" x1="200" y1="100" x2="200" y2="420"/><line class="a" x1="220" y1="100" x2="220" y2="420"/><line class="a" x1="140" y1="100" x2="140" y2="420"/><line class="a" x1="270" y1="100" x2="270" y2="420"/><line class="a" x1="280" y1="100" x2="280" y2="420"/><line class="a" x1="340" y1="100" x2="340" y2="420"/><line class="a" x1="350" y1="100" x2="350" y2="420"/><line class="a" x1="360" y1="100" x2="360" y2="420"/><line class="a" x1="70" y1="100" x2="350" y2="260"/><line class="a" x1="70" y1="180" x2="350" y2="340"/><line class="a" x1="70" y1="260" x2="350" y2="420"/><line class="a" x1="70" y1="180" x2="210" y2="100"/><line class="a" x1="70" y1="260" x2="350" y2="100"/><line class="a" x1="70" y1="340" x2="350" y2="180"/><line class="a" x1="210" y1="100" x2="350" y2="180"/><line class="a" x1="350" y1="260" x2="70" y2="420"/><line class="a" x1="350" y1="340" x2="210" y2="420"/><line class="a" x1="70" y1="340" x2="210" y2="420"/><line class="a" x1="90" y1="340" x2="370" y2="180"/><line class="a" x1="370" y1="420" x2="90" y2="260"/><line class="a" x1="90" y1="420" x2="370" y2="260"/><line class="a" x1="230" y1="420" x2="90" y2="340"/><line class="a" x1="230" y1="100" x2="370" y2="180"/><line class="a" x1="370" y1="260" x2="90" y2="100"/><line class="a" x1="370" y1="340" x2="90" y2="180"/><line class="a" x1="230" y1="100" x2="90" y2="180"/><line class="a" x1="90" y1="260" x2="370" y2="100"/><line class="a" x1="370" y1="340" x2="230" y2="420"/><line class="a" x1="50" y1="260" x2="330" y2="100"/><line class="a" x1="50" y1="180" x2="190" y2="100"/><line class="a" x1="50" y1="340" x2="330" y2="180"/><line class="a" x1="50" y1="420" x2="330" y2="260"/><line class="a" x1="50" y1="260" x2="330" y2="420"/><line class="a" x1="50" y1="340" x2="190" y2="420"/><line class="a" x1="50" y1="180" x2="330" y2="340"/><line class="a" x1="330" y1="260" x2="50" y2="100"/><line class="a" x1="330" y1="180" x2="190" y2="100"/><line class="a" x1="330" y1="340" x2="190" y2="420"/><line class="a" x1="50" y1="100" x2="50" y2="420"/><line class="a" x1="70" y1="100" x2="70" y2="420"/><line class="a" x1="60" y1="100" x2="60" y2="420"/><line class="a" x1="80" y1="100" x2="80" y2="420"/><line class="b" x1="680" y1="360" x2="560" y2="280"/><line class="b" x1="680" y1="280" x2="560" y2="200"/><line class="b" x1="680" y1="200" x2="560" y2="120"/><line class="b" x1="560" y1="360" x2="680" y2="440"/><line class="b" x1="560" y1="320" x2="680" y2="400"/><line class="b" x1="560" y1="240" x2="680" y2="320"/><line class="b" x1="680" y1="240" x2="560" y2="160"/><line class="b" x1="680" y1="160" x2="560" y2="80"/><line class="b" x1="680" y1="120" x2="620" y2="80"/><line class="b" x1="560" y1="440" x2="680" y2="360"/><line class="b" x1="560" y1="400" x2="680" y2="320"/><line class="b" x1="560" y1="360" x2="680" y2="280"/><line class="b" x1="560" y1="320" x2="680" y2="240"/><line class="b" x1="560" y1="280" x2="680" y2="200"/><line class="b" x1="560" y1="240" x2="680" y2="160"/><line class="b" x1="560" y1="200" x2="680" y2="120"/><line class="b" x1="560" y1="160" x2="680" y2="80"/><line class="b" x1="560" y1="120" x2="620" y2="80"/><line class="b" x1="560" y1="400" x2="620" y2="440"/><line class="b" x1="680" y1="400" x2="620" y2="440"/><line class="b" x1="560" y1="440" x2="560" y2="80"/><line class="b" x1="680" y1="440" x2="680" y2="80"/><line class="b" x1="590" y1="440" x2="590" y2="80"/><line class="b" x1="620" y1="440" x2="620" y2="80"/><line class="b" x1="650" y1="440" x2="650" y2="80"/><line class="b" x1="560" y1="380" x2="680" y2="380"/><line class="b" x1="560" y1="320" x2="680" y2="320"/><line class="b" x1="560" y1="260" x2="680" y2="260"/><line class="b" x1="560" y1="200" x2="680" y2="200"/><line class="b" x1="560" y1="140" x2="680" y2="140"/><line class="b" x1="560" y1="80" x2="680" y2="80"/><line class="b" x1="200" y1="277.14" x2="210" y2="260"/><line class="b" x1="220" y1="277.14" x2="210" y2="260"/><line class="b" x1="200" y1="242.86" x2="210" y2="260"/><line class="b" x1="220" y1="242.86" x2="210" y2="260"/><line class="b" x1="200" y1="357.14" x2="210" y2="340"/><line class="b" x1="220" y1="357.14" x2="210" y2="340"/><line class="b" x1="130" y1="317.14" x2="140" y2="300"/><line class="b" x1="150" y1="317.14" x2="140" y2="300"/><line class="b" x1="270" y1="317.14" x2="280" y2="300"/><line class="b" x1="290" y1="317.14" x2="280" y2="300"/><line class="b" x1="130" y1="397.14" x2="140" y2="380"/><line class="b" x1="150" y1="397.14" x2="140" y2="380"/><line class="b" x1="270" y1="397.14" x2="280" y2="380"/><line class="b" x1="290" y1="397.14" x2="280" y2="380"/><line class="b" x1="270" y1="237.14" x2="280" y2="220"/><line class="b" x1="290" y1="237.14" x2="280" y2="220"/><line class="b" x1="130" y1="237.14" x2="140" y2="220"/><line class="b" x1="150" y1="237.14" x2="140" y2="220"/><line class="b" x1="270" y1="157.14" x2="280" y2="140"/><line class="b" x1="290" y1="157.14" x2="280" y2="140"/><line class="b" x1="200" y1="197.14" x2="210" y2="180"/><line class="b" x1="220" y1="197.14" x2="210" y2="180"/><line class="b" x1="130" y1="157.14" x2="140" y2="140"/><line class="b" x1="150" y1="157.14" x2="140" y2="140"/><line class="b" x1="200" y1="117.14" x2="210" y2="100"/><line class="b" x1="220" y1="117.14" x2="210" y2="100"/><line class="b" x1="270" y1="202.86" x2="280" y2="220"/><line class="b" x1="290" y1="202.86" x2="280" y2="220"/><line class="b" x1="270" y1="122.86" x2="280" y2="140"/><line class="b" x1="290" y1="122.86" x2="280" y2="140"/><line class="b" x1="200" y1="162.86" x2="210" y2="180"/><line class="b" x1="220" y1="162.86" x2="210" y2="180"/><line class="b" x1="130" y1="122.86" x2="140" y2="140"/><line class="b" x1="150" y1="122.86" x2="140" y2="140"/><line class="b" x1="270" y1="282.86" x2="280" y2="300"/><line class="b" x1="290" y1="282.86" x2="280" y2="300"/><line class="b" x1="130" y1="282.86" x2="140" y2="300"/><line class="b" x1="150" y1="282.86" x2="140" y2="300"/><line class="b" x1="270" y1="362.86" x2="280" y2="380"/><line class="b" x1="290" y1="362.86" x2="280" y2="380"/><line class="b" x1="130" y1="362.86" x2="140" y2="380"/><line class="b" x1="150" y1="362.86" x2="140" y2="380"/><line class="b" x1="200" y1="322.86" x2="210" y2="340"/><line class="b" x1="220" y1="322.86" x2="210" y2="340"/><line class="b" x1="130" y1="202.86" x2="140" y2="220"/><line class="b" x1="150" y1="202.86" x2="140" y2="220"/><line class="b" x1="190" y1="180" x2="210" y2="180"/><line class="b" x1="230" y1="180" x2="210" y2="180"/><line class="b" x1="120" y1="220" x2="140" y2="220"/><line class="b" x1="160" y1="220" x2="140" y2="220"/><line class="b" x1="120" y1="300" x2="140" y2="300"/><line class="b" x1="160" y1="300" x2="140" y2="300"/><line class="b" x1="120" y1="380" x2="140" y2="380"/><line class="b" x1="160" y1="380" x2="140" y2="380"/><line class="b" x1="260" y1="380" x2="280" y2="380"/><line class="b" x1="300" y1="380" x2="280" y2="380"/><line class="b" x1="190" y1="340" x2="210" y2="340"/><line class="b" x1="230" y1="340" x2="210" y2="340"/><line class="b" x1="260" y1="300" x2="280" y2="300"/><line class="b" x1="300" y1="300" x2="280" y2="300"/><line class="b" x1="260" y1="220" x2="280" y2="220"/><line class="b" x1="300" y1="220" x2="280" y2="220"/><line class="b" x1="190" y1="260" x2="210" y2="260"/><line class="b" x1="230" y1="260" x2="210" y2="260"/><line class="b" x1="120" y1="140" x2="140" y2="140"/><line class="b" x1="160" y1="140" x2="140" y2="140"/><line class="b" x1="190" y1="100" x2="210" y2="100"/><line class="b" x1="230" y1="100" x2="210" y2="100"/><line class="b" x1="260" y1="140" x2="280" y2="140"/><line class="b" x1="300" y1="140" x2="280" y2="140"/><line class="b" x1="200" y1="402.86" x2="210" y2="420"/><line class="b" x1="220" y1="402.86" x2="210" y2="420"/><line class="b" x1="190" y1="420" x2="210" y2="420"/><line class="b" x1="230" y1="420" x2="210" y2="420"/><line class="b" x1="150" y1="397.14" x2="190" y2="420"/><line class="b" x1="160" y1="380" x2="200" y2="402.86"/><line class="b" x1="200" y1="357.14" x2="200" y2="402.86"/><line class="b" x1="220" y1="357.14" x2="220" y2="402.86"/><line class="b" x1="160" y1="380" x2="200" y2="357.14"/><line class="b" x1="150" y1="362.86" x2="190" y2="340"/><line class="b" x1="150" y1="397.14" x2="150" y2="420"/><line class="b" x1="130" y1="397.14" x2="130" y2="420"/><line class="b" x1="150" y1="317.14" x2="190" y2="340"/><line class="b" x1="160" y1="300" x2="200" y2="322.86"/><line class="b" x1="200" y1="277.14" x2="200" y2="322.86"/><line class="b" x1="220" y1="277.14" x2="220" y2="322.86"/><line class="b" x1="160" y1="300" x2="200" y2="277.14"/><line class="b" x1="150" y1="282.86" x2="190" y2="260"/><line class="b" x1="150" y1="237.14" x2="190" y2="260"/><line class="b" x1="160" y1="220" x2="200" y2="242.86"/><line class="b" x1="200" y1="197.14" x2="200" y2="242.86"/><line class="b" x1="220" y1="197.14" x2="220" y2="242.86"/><line class="b" x1="160" y1="220" x2="200" y2="197.14"/><line class="b" x1="150" y1="202.86" x2="190" y2="180"/><line class="b" x1="150" y1="157.14" x2="190" y2="180"/><line class="b" x1="160" y1="140" x2="200" y2="162.86"/><line class="b" x1="200" y1="117.14" x2="200" y2="162.86"/><line class="b" x1="220" y1="117.14" x2="220" y2="162.86"/><line class="b" x1="160" y1="140" x2="200" y2="117.14"/><line class="b" x1="150" y1="122.86" x2="190" y2="100"/><line class="b" x1="290" y1="157.14" x2="330" y2="180"/><line class="b" x1="300" y1="140" x2="340" y2="162.86"/><line class="b" x1="340" y1="117.14" x2="340" y2="162.86"/><line class="b" x1="360" y1="117.14" x2="360" y2="162.86"/><line class="b" x1="300" y1="140" x2="340" y2="117.14"/><line class="b" x1="290" y1="122.86" x2="330" y2="100"/><line class="b" x1="290" y1="237.14" x2="330" y2="260"/><line class="b" x1="300" y1="220" x2="340" y2="242.86"/><line class="b" x1="340" y1="197.14" x2="340" y2="242.86"/><line class="b" x1="360" y1="197.14" x2="360" y2="242.86"/><line class="b" x1="300" y1="220" x2="340" y2="197.14"/><line class="b" x1="290" y1="202.86" x2="330" y2="180"/><line class="b" x1="290" y1="317.14" x2="330" y2="340"/><line class="b" x1="300" y1="300" x2="340" y2="322.86"/><line class="b" x1="340" y1="277.14" x2="340" y2="322.86"/><line class="b" x1="360" y1="277.14" x2="360" y2="322.86"/><line class="b" x1="300" y1="300" x2="340" y2="277.14"/><line class="b" x1="290" y1="282.86" x2="330" y2="260"/><line class="b" x1="290" y1="397.14" x2="330" y2="420"/><line class="b" x1="300" y1="380" x2="340" y2="402.86"/><line class="b" x1="340" y1="357.14" x2="340" y2="402.86"/><line class="b" x1="360" y1="357.14" x2="360" y2="402.86"/><line class="b" x1="300" y1="380" x2="340" y2="357.14"/><line class="b" x1="290" y1="362.86" x2="330" y2="340"/><line class="b" x1="130" y1="397.14" x2="90" y2="420"/><line class="b" x1="120" y1="380" x2="80" y2="402.86"/><line class="b" x1="80" y1="357.14" x2="80" y2="402.86"/><line class="b" x1="60" y1="357.14" x2="60" y2="402.86"/><line class="b" x1="120" y1="380" x2="80" y2="357.14"/><line class="b" x1="130" y1="362.86" x2="90" y2="340"/><line class="b" x1="130" y1="317.14" x2="90" y2="340"/><line class="b" x1="120" y1="300" x2="80" y2="322.86"/><line class="b" x1="80" y1="277.14" x2="80" y2="322.86"/><line class="b" x1="60" y1="277.14" x2="60" y2="322.86"/><line class="b" x1="120" y1="300" x2="80" y2="277.14"/><line class="b" x1="130" y1="282.86" x2="90" y2="260"/><line class="b" x1="130" y1="237.14" x2="90" y2="260"/><line class="b" x1="120" y1="220" x2="80" y2="242.86"/><line class="b" x1="80" y1="197.14" x2="80" y2="242.86"/><line class="b" x1="60" y1="197.14" x2="60" y2="242.86"/><line class="b" x1="120" y1="220" x2="80" y2="197.14"/><line class="b" x1="130" y1="202.86" x2="90" y2="180"/><line class="b" x1="130" y1="157.14" x2="90" y2="180"/><line class="b" x1="120" y1="140" x2="80" y2="162.86"/><line class="b" x1="80" y1="117.14" x2="80" y2="162.86"/><line class="b" x1="60" y1="117.14" x2="60" y2="162.86"/><line class="b" x1="120" y1="140" x2="80" y2="117.14"/><line class="b" x1="130" y1="122.86" x2="90" y2="100"/><line class="b" x1="270" y1="397.14" x2="230" y2="420"/><line class="b" x1="260" y1="380" x2="220" y2="402.86"/><line class="b" x1="260" y1="380" x2="220" y2="357.14"/><line class="b" x1="270" y1="362.86" x2="230" y2="340"/><line class="b" x1="270" y1="317.14" x2="230" y2="340"/><line class="b" x1="260" y1="300" x2="220" y2="322.86"/><line class="b" x1="260" y1="300" x2="220" y2="277.14"/><line class="b" x1="270" y1="282.86" x2="230" y2="260"/><line class="b" x1="270" y1="237.14" x2="230" y2="260"/><line class="b" x1="260" y1="220" x2="220" y2="242.86"/><line class="b" x1="260" y1="220" x2="220" y2="197.14"/><line class="b" x1="270" y1="202.86" x2="230" y2="180"/><line class="b" x1="270" y1="157.14" x2="230" y2="180"/><line class="b" x1="260" y1="140" x2="220" y2="162.86"/><line class="b" x1="260" y1="140" x2="220" y2="117.14"/><line class="b" x1="270" y1="122.86" x2="230" y2="100"/><line class="b" x1="130" y1="122.86" x2="130" y2="100"/><line class="b" x1="150" y1="100" x2="150" y2="122.86"/><line class="b" x1="270" y1="100" x2="270" y2="122.86"/><line class="b" x1="290" y1="100" x2="290" y2="122.86"/><line class="b" x1="270" y1="420" x2="270" y2="397.14"/><line class="b" x1="290" y1="397.14" x2="290" y2="420"/><line class="b" x1="270" y1="317.14" x2="270" y2="362.86"/><line class="b" x1="290" y1="317.14" x2="290" y2="362.86"/><line class="b" x1="270" y1="237.14" x2="270" y2="282.86"/><line class="b" x1="290" y1="237.14" x2="290" y2="282.86"/><line class="b" x1="270" y1="157.14" x2="270" y2="202.86"/><line class="b" x1="290" y1="157.14" x2="290" y2="202.86"/><line class="b" x1="130" y1="317.14" x2="130" y2="362.86"/><line class="b" x1="150" y1="317.14" x2="150" y2="362.86"/><line class="b" x1="130" y1="237.14" x2="130" y2="282.86"/><line class="b" x1="150" y1="237.14" x2="150" y2="282.86"/><line class="b" x1="130" y1="157.14" x2="130" y2="202.86"/><line class="b" x1="150" y1="157.14" x2="150" y2="202.86"/><line class="b" x1="60" y1="117.14" x2="70" y2="100"/><line class="b" x1="80" y1="117.14" x2="70" y2="100"/><line class="b" x1="90" y1="100" x2="70" y2="100"/><line class="b" x1="60" y1="197.14" x2="70" y2="180"/><line class="b" x1="80" y1="197.14" x2="70" y2="180"/><line class="b" x1="90" y1="180" x2="70" y2="180"/><line class="b" x1="60" y1="277.14" x2="70" y2="260"/><line class="b" x1="80" y1="277.14" x2="70" y2="260"/><line class="b" x1="90" y1="260" x2="70" y2="260"/><line class="b" x1="60" y1="357.14" x2="70" y2="340"/><line class="b" x1="80" y1="357.14" x2="70" y2="340"/><line class="b" x1="90" y1="340" x2="70" y2="340"/><line class="b" x1="60" y1="162.86" x2="70" y2="180"/><line class="b" x1="80" y1="162.86" x2="70" y2="180"/><line class="b" x1="60" y1="242.86" x2="70" y2="260"/><line class="b" x1="80" y1="242.86" x2="70" y2="260"/><line class="b" x1="60" y1="322.86" x2="70" y2="340"/><line class="b" x1="80" y1="322.86" x2="70" y2="340"/><line class="b" x1="60" y1="402.86" x2="70" y2="420"/><line class="b" x1="80" y1="402.86" x2="70" y2="420"/><line class="b" x1="340" y1="402.86" x2="350" y2="420"/><line class="b" x1="360" y1="402.86" x2="350" y2="420"/><line class="b" x1="330" y1="420" x2="350" y2="420"/><line class="b" x1="340" y1="322.86" x2="350" y2="340"/><line class="b" x1="360" y1="322.86" x2="350" y2="340"/><line class="b" x1="330" y1="340" x2="350" y2="340"/><line class="b" x1="340" y1="242.86" x2="350" y2="260"/><line class="b" x1="360" y1="242.86" x2="350" y2="260"/><line class="b" x1="330" y1="260" x2="350" y2="260"/><line class="b" x1="340" y1="162.86" x2="350" y2="180"/><line class="b" x1="360" y1="162.86" x2="350" y2="180"/><line class="b" x1="330" y1="180" x2="350" y2="180"/><line class="b" x1="340" y1="117.14" x2="350" y2="100"/><line class="b" x1="360" y1="117.14" x2="350" y2="100"/><line class="b" x1="330" y1="100" x2="350" y2="100"/><line class="b" x1="340" y1="357.14" x2="350" y2="340"/><line class="b" x1="360" y1="357.14" x2="350" y2="340"/><line class="b" x1="340" y1="277.14" x2="350" y2="260"/><line class="b" x1="360" y1="277.14" x2="350" y2="260"/><line class="b" x1="340" y1="197.14" x2="350" y2="180"/><line class="b" x1="360" y1="197.14" x2="350" y2="180"/><line class="b" x1="70" y1="420" x2="90" y2="420"/><line class="b" x1="560" y1="320" x2="680" y2="80"/><line class="b" x1="560" y1="80" x2="680" y2="320"/><line class="b" x1="680" y1="440" x2="560" y2="200"/><line class="b" x1="680" y1="200" x2="620" y2="80"/><line class="b" x1="560" y1="200" x2="620" y2="80"/><line class="b" x1="680" y1="200" x2="560" y2="440"/><line class="b" x1="680" y1="320" x2="620" y2="440"/><line class="b" x1="620" y1="440" x2="560" y2="320"/><line class="b" x1="560" y1="440" x2="680" y2="440"/><line class="b" x1="70" y1="420" x2="90" y2="420"/><line class="b" x1="70" y1="340" x2="80" y2="340"/><line class="b" x1="70" y1="260" x2="80" y2="260"/><line class="b" x1="70" y1="180" x2="80" y2="180"/><line class="b" x1="70" y1="100" x2="90" y2="100"/></svg>