<svg xmlns="http://www.w3.org/2000/svg" viewBox="0 0 1220 360"><defs><style>.a,.b,.c{fill:none;stroke-linejoin:bevel;}.a{stroke:#228be6;stroke-width:0.25px;}.b,.c{stroke:#fff;}.c{stroke-width:0.5px;}</style></defs><title>Untitled-2</title><line class="a" x1="438" y1="180" x2="742" y2="180"/><line class="a" x1="450" y1="220" x2="450" y2="140"/><line class="a" x1="490" y1="220" x2="490" y2="140"/><line class="a" x1="510" y1="220" x2="510" y2="140"/><line class="a" x1="550" y1="220" x2="550" y2="140"/><line class="a" x1="570" y1="220" x2="570" y2="140"/><line class="a" x1="610" y1="180" x2="610" y2="140"/><line class="a" x1="630" y1="180" x2="630" y2="140"/><line class="a" x1="670" y1="180" x2="670" y2="140"/><line class="a" x1="690" y1="180" x2="690" y2="140"/><line class="a" x1="730" y1="180" x2="730" y2="140"/><line class="a" x1="438" y1="160" x2="742" y2="160"/><line class="a" x1="438" y1="200" x2="742" y2="200"/><line class="a" x1="610" y1="220" x2="610" y2="180"/><line class="a" x1="630" y1="220" x2="630" y2="180"/><line class="a" x1="670" y1="220" x2="670" y2="180"/><line class="a" x1="690" y1="220" x2="690" y2="180"/><line class="a" x1="730" y1="220" x2="730" y2="180"/><line class="a" x1="438" y1="140" x2="742" y2="140"/><line class="a" x1="440" y1="150" x2="470" y2="180"/><line class="a" x1="510" y1="140" x2="470" y2="180"/><line class="a" x1="550" y1="180" x2="510" y2="140"/><line class="a" x1="590" y1="140" x2="550" y2="180"/><line class="a" x1="630" y1="180" x2="590" y2="140"/><line class="a" x1="670" y1="140" x2="630" y2="180"/><line class="a" x1="710" y1="180" x2="670" y2="140"/><line class="a" x1="740" y1="150" x2="710" y2="180"/><line class="a" x1="440" y1="170" x2="470" y2="140"/><line class="a" x1="510" y1="180" x2="470" y2="140"/><line class="a" x1="550" y1="140" x2="510" y2="180"/><line class="a" x1="590" y1="180" x2="550" y2="140"/><line class="a" x1="630" y1="140" x2="590" y2="180"/><line class="a" x1="670" y1="180" x2="630" y2="140"/><line class="a" x1="710" y1="140" x2="670" y2="180"/><line class="a" x1="740" y1="170" x2="710" y2="140"/><line class="a" x1="440" y1="130" x2="740" y2="130"/><circle class="a" cx="456" cy="146" r="6"/><circle class="a" cx="464" cy="154" r="6"/><circle class="a" cx="444" cy="146" r="6"/><circle class="a" cx="464" cy="166" r="6"/><circle class="a" cx="456" cy="174" r="6"/><circle class="a" cx="444" cy="174" r="6"/><circle class="a" cx="496" cy="146" r="6"/><circle class="a" cx="504" cy="154" r="6"/><circle class="a" cx="484" cy="146" r="6"/><circle class="a" cx="504" cy="166" r="6"/><circle class="a" cx="496" cy="174" r="6"/><circle class="a" cx="484" cy="174" r="6"/><circle class="a" cx="476" cy="154" r="6"/><circle class="a" cx="476" cy="166" r="6"/><circle class="a" cx="536" cy="146" r="6"/><circle class="a" cx="544" cy="154" r="6"/><circle class="a" cx="524" cy="146" r="6"/><circle class="a" cx="544" cy="166" r="6"/><circle class="a" cx="536" cy="174" r="6"/><circle class="a" cx="524" cy="174" r="6"/><circle class="a" cx="516" cy="154" r="6"/><circle class="a" cx="516" cy="166" r="6"/><circle class="a" cx="576" cy="146" r="6"/><circle class="a" cx="584" cy="154" r="6"/><circle class="a" cx="564" cy="146" r="6"/><circle class="a" cx="584" cy="166" r="6"/><circle class="a" cx="576" cy="174" r="6"/><circle class="a" cx="564" cy="174" r="6"/><circle class="a" cx="556" cy="154" r="6"/><circle class="a" cx="556" cy="166" r="6"/><circle class="a" cx="616" cy="146" r="6"/><circle class="a" cx="624" cy="154" r="6"/><circle class="a" cx="604" cy="146" r="6"/><circle class="a" cx="624" cy="166" r="6"/><circle class="a" cx="616" cy="174" r="6"/><circle class="a" cx="604" cy="174" r="6"/><circle class="a" cx="596" cy="154" r="6"/><circle class="a" cx="596" cy="166" r="6"/><circle class="a" cx="656" cy="146" r="6"/><circle class="a" cx="664" cy="154" r="6"/><circle class="a" cx="644" cy="146" r="6"/><circle class="a" cx="664" cy="166" r="6"/><circle class="a" cx="656" cy="174" r="6"/><circle class="a" cx="644" cy="174" r="6"/><circle class="a" cx="636" cy="154" r="6"/><circle class="a" cx="636" cy="166" r="6"/><circle class="a" cx="696" cy="146" r="6"/><circle class="a" cx="704" cy="154" r="6"/><circle class="a" cx="684" cy="146" r="6"/><circle class="a" cx="704" cy="166" r="6"/><circle class="a" cx="696" cy="174" r="6"/><circle class="a" cx="684" cy="174" r="6"/><circle class="a" cx="676" cy="154" r="6"/><circle class="a" cx="676" cy="166" r="6"/><circle class="a" cx="736" cy="146" r="6"/><circle class="a" cx="724" cy="146" r="6"/><circle class="a" cx="736" cy="174" r="6"/><circle class="a" cx="724" cy="174" r="6"/><circle class="a" cx="716" cy="154" r="6"/><circle class="a" cx="716" cy="166" r="6"/><line class="a" x1="438" y1="130" x2="438" y2="220"/><line class="a" x1="440" y1="130" x2="438" y2="130"/><line class="a" x1="742" y1="130" x2="742" y2="220"/><line class="a" x1="740" y1="130" x2="742" y2="130"/><line class="a" x1="742" y1="220" x2="740" y2="220"/><line class="a" x1="438" y1="220" x2="440" y2="220"/><line class="a" x1="550" y1="240" x2="570" y2="240"/><line class="a" x1="610" y1="240" x2="630" y2="240"/><line class="a" x1="550" y1="240" x2="550" y2="260"/><line class="a" x1="570" y1="240" x2="570" y2="260"/><line class="a" x1="610" y1="240" x2="610" y2="260"/><line class="a" x1="630" y1="240" x2="630" y2="260"/><line class="a" x1="490" y1="240" x2="510" y2="240"/><line class="a" x1="490" y1="240" x2="490" y2="260"/><line class="a" x1="510" y1="240" x2="510" y2="260"/><line class="a" x1="670" y1="240" x2="690" y2="240"/><line class="a" x1="670" y1="240" x2="670" y2="260"/><line class="a" x1="690" y1="240" x2="690" y2="260"/><line class="b" y1="260" x2="860" y2="260"/><line class="b" x1="860" y1="260" x2="900" y2="250"/><line class="b" x1="900" y1="250" x2="1220" y2="250"/><line class="a" x1="970" y1="220" x2="970" y2="245"/><line class="a" x1="995" y1="220" x2="995" y2="245"/><line class="a" x1="1020" y1="220" x2="1020" y2="245"/><line class="a" x1="1030" y1="178" x2="1030" y2="182"/><line class="a" x1="1028" y1="180" x2="1032" y2="180"/><line class="a" x1="1105" y1="208" x2="1105" y2="212"/><line class="a" x1="1103" y1="210" x2="1107" y2="210"/><line class="a" x1="965" y1="225" x2="975" y2="225"/><line class="a" x1="990" y1="225" x2="1000" y2="225"/><line class="a" x1="1015" y1="225" x2="1025" y2="225"/><line class="a" x1="965" y1="240" x2="975" y2="240"/><line class="a" x1="990" y1="240" x2="1000" y2="240"/><line class="a" x1="1015" y1="240" x2="1025" y2="240"/><line class="a" x1="965" y1="235" x2="975" y2="235"/><line class="a" x1="965" y1="230" x2="975" y2="230"/><line class="a" x1="990" y1="230" x2="1000" y2="230"/><line class="a" x1="990" y1="235" x2="1000" y2="235"/><line class="a" x1="1015" y1="230" x2="1025" y2="230"/><line class="a" x1="1015" y1="235" x2="1025" y2="235"/><path class="a" d="M968,225a2,2,0,0,1,2-2"/><path class="a" d="M972,225a2,2,0,0,0-2-2"/><path class="a" d="M993,225a2,2,0,0,1,2-2"/><path class="a" d="M997,225a2,2,0,0,0-2-2"/><path class="a" d="M1018,225a2,2,0,0,1,2-2"/><path class="a" d="M1022,225a2,2,0,0,0-2-2"/><line class="a" x1="968" y1="225" x2="968" y2="245"/><line class="a" x1="972" y1="225" x2="972" y2="245"/><line class="a" x1="993" y1="225" x2="993" y2="245"/><line class="a" x1="997" y1="225" x2="997" y2="245"/><line class="a" x1="1018" y1="225" x2="1018" y2="245"/><line class="a" x1="1022" y1="225" x2="1022" y2="245"/><line class="c" x1="586" y1="224" x2="588" y2="260"/><line class="c" x1="594" y1="224" x2="592" y2="260"/><line class="c" x1="646" y1="224" x2="648" y2="260"/><line class="c" x1="654" y1="224" x2="652" y2="260"/><line class="c" x1="706" y1="224" x2="708" y2="260"/><line class="c" x1="714" y1="224" x2="712" y2="260"/><line class="c" x1="740" y1="222" x2="714" y2="224"/><line class="c" x1="680" y1="222" x2="654" y2="224"/><line class="c" x1="706" y1="224" x2="680" y2="222"/><line class="c" x1="594" y1="224" x2="620" y2="222"/><line class="c" x1="646" y1="224" x2="620" y2="222"/><line class="c" x1="534" y1="224" x2="560" y2="222"/><line class="c" x1="586" y1="224" x2="560" y2="222"/><line class="c" x1="440" y1="222" x2="466" y2="224"/><line class="c" x1="474" y1="224" x2="500" y2="222"/><line class="c" x1="526" y1="224" x2="500" y2="222"/><line class="c" x1="390" y1="260" x2="390" y2="140"/><line class="c" x1="790" y1="260" x2="790" y2="140"/><line class="c" x1="390" y1="140" x2="438" y2="140"/><line class="c" x1="470" y1="260" x2="470" y2="140"/><line class="c" x1="530" y1="260" x2="530" y2="140"/><line class="c" x1="590" y1="260" x2="590" y2="140"/><line class="c" x1="650" y1="260" x2="650" y2="140"/><line class="c" x1="710" y1="260" x2="710" y2="140"/><line class="c" x1="440" y1="220" x2="740" y2="220"/><line class="c" x1="440" y1="130" x2="440" y2="222"/><line class="c" x1="740" y1="130" x2="740" y2="222"/><line class="c" x1="440" y1="130" x2="470" y2="140"/><line class="c" x1="500" y1="130" x2="530" y2="140"/><line class="c" x1="560" y1="130" x2="590" y2="140"/><line class="c" x1="620" y1="130" x2="650" y2="140"/><line class="c" x1="680" y1="130" x2="710" y2="140"/><line class="c" x1="470" y1="140" x2="500" y2="130"/><line class="c" x1="530" y1="140" x2="560" y2="130"/><line class="c" x1="590" y1="140" x2="620" y2="130"/><line class="c" x1="650" y1="140" x2="680" y2="130"/><line class="c" x1="710" y1="140" x2="740" y2="130"/><line class="c" x1="790" y1="140" x2="742" y2="140"/><line class="c" x1="960" y1="250" x2="960" y2="195"/><line class="c" x1="1030" y1="250" x2="1030" y2="195"/><line class="c" x1="960" y1="195" x2="1030" y2="195"/><line class="c" x1="960" y1="220" x2="970" y2="210"/><line class="c" x1="980" y1="220" x2="970" y2="210"/><line class="c" x1="995" y1="210" x2="985" y2="220"/><line class="c" x1="1005" y1="220" x2="995" y2="210"/><line class="c" x1="1020" y1="210" x2="1010" y2="220"/><line class="c" x1="1030" y1="220" x2="1020" y2="210"/><path class="c" d="M965,225a5,5,0,0,1,5-5"/><path class="c" d="M975,225a5,5,0,0,0-5-5"/><path class="c" d="M990,225a5,5,0,0,1,5-5"/><path class="c" d="M1000,225a5,5,0,0,0-5-5"/><path class="c" d="M1015,225a5,5,0,0,1,5-5"/><path class="c" d="M1025,225a5,5,0,0,0-5-5"/><line class="c" x1="965" y1="225" x2="965" y2="245"/><line class="c" x1="975" y1="225" x2="975" y2="245"/><line class="c" x1="990" y1="225" x2="990" y2="245"/><line class="c" x1="1000" y1="225" x2="1000" y2="245"/><line class="c" x1="1015" y1="225" x2="1015" y2="245"/><line class="c" x1="1025" y1="225" x2="1025" y2="245"/><line class="c" x1="965" y1="245" x2="975" y2="245"/><line class="c" x1="990" y1="245" x2="1000" y2="245"/><line class="c" x1="1015" y1="245" x2="1025" y2="245"/><line class="c" x1="980" y1="220" x2="985" y2="220"/><line class="c" x1="1010" y1="220" x2="1005" y2="220"/><line class="c" x1="1040" y1="250" x2="1040" y2="160"/><line class="c" x1="1020" y1="160" x2="1020" y2="195"/><line class="c" x1="1020" y1="180" x2="1030" y2="160"/><line class="c" x1="1040" y1="180" x2="1030" y2="160"/><line class="c" x1="1022.5" y1="160" x2="1030" y2="120"/><line class="c" x1="1037.5" y1="160" x2="1030" y2="120"/><line class="c" x1="1030" y1="100" x2="1030" y2="120"/><line class="c" x1="1025" y1="105" x2="1035" y2="105"/><line class="c" x1="1080" y1="220" x2="1105" y2="195"/><line class="c" x1="1130" y1="220" x2="1105" y2="195"/><line class="c" x1="1080" y1="210" x2="1080" y2="250"/><line class="c" x1="1130" y1="210" x2="1130" y2="250"/><line class="c" x1="1080" y1="210" x2="1090" y2="210"/><line class="c" x1="1130" y1="210" x2="1120" y2="210"/><circle class="c" cx="1030" cy="180" r="2.5"/><circle class="c" cx="1105" cy="210" r="2.5"/><line class="c" x1="1020" y1="160" x2="1022.5" y2="160"/><line class="c" x1="1040" y1="160" x2="1037.5" y2="160"/><line class="c" x1="466" y1="224" x2="468" y2="260"/><line class="c" x1="474" y1="224" x2="472" y2="260"/><line class="c" x1="526" y1="224" x2="528" y2="260"/><line class="c" x1="534" y1="224" x2="532" y2="260"/><line class="c" x1="440" y1="132" x2="468" y2="142"/><line class="c" x1="472" y1="142" x2="500" y2="132"/><line class="c" x1="528" y1="142" x2="500" y2="132"/><line class="c" x1="560" y1="132" x2="532" y2="142"/><line class="c" x1="588" y1="142" x2="560" y2="132"/><line class="c" x1="592" y1="142" x2="620" y2="132"/><line class="c" x1="648" y1="142" x2="620" y2="132"/><line class="c" x1="680" y1="132" x2="652" y2="142"/><line class="c" x1="708" y1="142" x2="680" y2="132"/><line class="c" x1="712" y1="142" x2="740" y2="132"/><line class="c" x1="466" y1="216" x2="468" y2="142"/><line class="c" x1="472" y1="142" x2="474" y2="216"/><line class="c" x1="526" y1="216" x2="528" y2="142"/><line class="c" x1="532" y1="142" x2="534" y2="216"/><line class="c" x1="588" y1="142" x2="586" y2="216"/><line class="c" x1="592" y1="142" x2="594" y2="216"/><line class="c" x1="648" y1="142" x2="646" y2="216"/><line class="c" x1="652" y1="142" x2="654" y2="216"/><line class="c" x1="708" y1="142" x2="706" y2="216"/><line class="c" x1="712" y1="142" x2="714" y2="216"/><line class="c" x1="440" y1="218" x2="466" y2="216"/><line class="c" x1="474" y1="216" x2="500" y2="218"/><line class="c" x1="500" y1="218" x2="526" y2="216"/><line class="c" x1="534" y1="216" x2="560" y2="218"/><line class="c" x1="586" y1="216" x2="560" y2="218"/><line class="c" x1="594" y1="216" x2="620" y2="218"/><line class="c" x1="646" y1="216" x2="620" y2="218"/><line class="c" x1="654" y1="216" x2="680" y2="218"/><line class="c" x1="706" y1="216" x2="680" y2="218"/><line class="c" x1="714" y1="216" x2="740" y2="218"/></svg>