<svg xmlns="http://www.w3.org/2000/svg" viewBox="0 0 310 70"><defs><style>path{fill:#FFF}</style></defs><path d="M91.34,53.32A11.3,11.3,0,0,0,97,51.82a12.08,12.08,0,0,0,4.24-4,9.71,9.71,0,0,0,1.6-5.35V41.6l-6.37.51a39.75,39.75,0,0,0-6,.92,9.43,9.43,0,0,0-4,1.89A4.31,4.31,0,0,0,85,48.36a4.44,4.44,0,0,0,.8,2.73A4.82,4.82,0,0,0,88,52.75,8.84,8.84,0,0,0,91.34,53.32ZM179,52.5a11.16,11.16,0,0,0,6-1.66,12.08,12.08,0,0,0,4.3-4.53,13.63,13.63,0,0,0,0-12.74A12.08,12.08,0,0,0,185,29a11.25,11.25,0,0,0-6-1.66,11.62,11.62,0,0,0-6,1.6,11.42,11.42,0,0,0-4.26,4.48,13.3,13.3,0,0,0-1.56,6.46,13.49,13.49,0,0,0,1.52,6.39,11.66,11.66,0,0,0,4.22,4.53A11.36,11.36,0,0,0,179,52.5Zm39.59.82a11.27,11.27,0,0,0,5.68-1.5,12.08,12.08,0,0,0,4.24-4,9.71,9.71,0,0,0,1.6-5.35V41.6l-6.36.51a39.91,39.91,0,0,0-6,.92,9.38,9.38,0,0,0-4,1.89,4.29,4.29,0,0,0-1.51,3.44,4.51,4.51,0,0,0,.8,2.73,4.92,4.92,0,0,0,2.23,1.66A8.84,8.84,0,0,0,218.62,53.32Zm-196,8A28,28,0,0,1,9.9,58.71a17.43,17.43,0,0,1-7.49-6.63A16.85,16.85,0,0,1,0,43.35H10.16a9,9,0,0,0,.17,1.51,7.88,7.88,0,0,0,1.94,4,10.59,10.59,0,0,0,4.18,2.79,16.66,16.66,0,0,0,6.08,1,22.05,22.05,0,0,0,6.9-.91A8.25,8.25,0,0,0,33.53,49a7.46,7.46,0,0,0,1.37-4.61,5.71,5.71,0,0,0-1.53-4.08,11,11,0,0,0-4.29-2.66,41.82,41.82,0,0,0-7-1.79,65.3,65.3,0,0,1-10.26-2.94,19.07,19.07,0,0,1-7.41-5.11,12.63,12.63,0,0,1-3-8.73,15.2,15.2,0,0,1,2.24-8.23,15,15,0,0,1,6.9-5.63A28.88,28.88,0,0,1,22.21,3.18,28.58,28.58,0,0,1,33.68,5.24a15.29,15.29,0,0,1,7.06,5.82,16.08,16.08,0,0,1,2.37,8.77H32.94a7,7,0,0,0-1.16-4,7.85,7.85,0,0,0-3.59-2.75,15.88,15.88,0,0,0-6.11-1,16.51,16.51,0,0,0-6.3,1,6.45,6.45,0,0,0-3.27,2.55,6.88,6.88,0,0,0-.92,3.53A5.33,5.33,0,0,0,13.12,23a11.54,11.54,0,0,0,4.56,2.61,48.8,48.8,0,0,0,7.83,1.82,44.49,44.49,0,0,1,10.07,2.91,17.4,17.4,0,0,1,7,5.37,14,14,0,0,1,2.66,8.74,15,15,0,0,1-2.78,9.1,17,17,0,0,1-7.88,5.76A33.39,33.39,0,0,1,22.57,61.27ZM64.76,60a17.31,17.31,0,0,1-6.53-1.17,10.08,10.08,0,0,1-4.84-4.55c-1.3-2.25-2-5.44-2-9.55V28H43.12V19.84h8.32V8.09L60.89,8V19.84h12V28h-12V45.12a9.54,9.54,0,0,0,.8,4.26,4.63,4.63,0,0,0,2.07,2.16,6.7,6.7,0,0,0,2.95.61h6.21V60Zm51.51-40.16h9v6.25a13,13,0,0,1,3.22-3.88,15.15,15.15,0,0,1,4.75-2.64,17.45,17.45,0,0,1,5.74-.94,16.27,16.27,0,0,1,8.94,2.29,13.77,13.77,0,0,1,5.39,6.68,28.45,28.45,0,0,1,1.8,10.76V60h-9.45V38.55q0-5.77-2.42-8.49a8.75,8.75,0,0,0-6.88-2.72,10.18,10.18,0,0,0-5.25,1.45,10.4,10.4,0,0,0-3.91,4.2,13.59,13.59,0,0,0-1.46,6.5V60h-9.46Zm61.05,41.37a18.08,18.08,0,0,1-10-2.83,19.53,19.53,0,0,1-6.92-7.72,23.15,23.15,0,0,1-2.5-10.74,23.56,23.56,0,0,1,2.46-10.74,19.14,19.14,0,0,1,6.92-7.71,18.49,18.49,0,0,1,10.15-2.84,14.77,14.77,0,0,1,5.8,1.12,16,16,0,0,1,4.63,2.87A15.52,15.52,0,0,1,191,26.41l-.2-4.18V5h9.42V60h-9V53.24a17.51,17.51,0,0,1-3.32,4.08,14.87,14.87,0,0,1-4.67,2.84A16.25,16.25,0,0,1,177.32,61.21Zm66.24-41.37h9.06v7.27a13.05,13.05,0,0,1,2.52-3.89,10.77,10.77,0,0,1,3.63-2.5,12,12,0,0,1,4.63-.88h4.3V28h-3.79a10.41,10.41,0,0,0-5.7,1.56,10.29,10.29,0,0,0-3.83,4.57A17.43,17.43,0,0,0,253,41.33V60h-9.45ZM292.14,60a17.22,17.22,0,0,1-6.52-1.17,10.05,10.05,0,0,1-4.85-4.55c-1.3-2.25-1.95-5.44-1.95-9.55V28H270.5V19.84h8.32V8.09L288.27,8V19.84h12V28h-12V45.12a9.54,9.54,0,0,0,.8,4.26,4.63,4.63,0,0,0,2.07,2.16,6.7,6.7,0,0,0,2.95.61h6.21V60Zm-61.61,0V53.24a14,14,0,0,1-3.69,4.34,16.55,16.55,0,0,1-5.11,2.73,18.47,18.47,0,0,1-5.88.94,15.71,15.71,0,0,1-6.57-1.33,10.6,10.6,0,0,1-4.64-4,11.49,11.49,0,0,1-1.72-6.43A11.15,11.15,0,0,1,205.46,42a15.63,15.63,0,0,1,6.89-4.49,42,42,0,0,1,10.25-2l7.54-.59v-.47a7.85,7.85,0,0,0-.93-3.84,6.69,6.69,0,0,0-2.84-2.7,9.79,9.79,0,0,0-4.59-1,11.06,11.06,0,0,0-4.53.87,7,7,0,0,0-3,2.48A6.56,6.56,0,0,0,213.15,34h-8.94a15.47,15.47,0,0,1,2.44-8.49,14.13,14.13,0,0,1,6.23-5.16,24.17,24.17,0,0,1,18.44.26,13.63,13.63,0,0,1,6.13,5.76,19,19,0,0,1,2.11,9.28V60ZM103.25,60V53.24a14.27,14.27,0,0,1-3.69,4.34,16.49,16.49,0,0,1-5.12,2.73,18.47,18.47,0,0,1-5.88.94A15.63,15.63,0,0,1,82,59.92a10.68,10.68,0,0,1-4.65-4,11.57,11.57,0,0,1-1.72-6.43A11.2,11.2,0,0,1,78.17,42a15.61,15.61,0,0,1,6.9-4.49,42,42,0,0,1,10.25-2l7.54-.59v-.47a7.75,7.75,0,0,0-.94-3.84,6.66,6.66,0,0,0-2.83-2.7,9.79,9.79,0,0,0-4.59-1,11,11,0,0,0-4.53.87,7.12,7.12,0,0,0-3,2.48A6.63,6.63,0,0,0,85.87,34h-9a15.56,15.56,0,0,1,2.44-8.49,14.18,14.18,0,0,1,6.23-5.16,24.17,24.17,0,0,1,18.44.26,13.58,13.58,0,0,1,6.13,5.76,18.86,18.86,0,0,1,2.11,9.28V60Z" transform="translate(0)"/></svg>